<svg width="200" height="200" viewBox="0 0 200 200" fill="none" xmlns="http://www.w3.org/2000/svg">
<ellipse cx="100.447" cy="101.498" rx="49.4471" ry="79.2849" fill="white"/>
<path d="M103.94 39.5605L107.553 84.9274L130.036 65.6565L115.181 98.1761L132.824 112.169H115.181V148.762L101.13 119.454L78.2454 148.762L93.9031 110.22L67.0039 106.607L86.7274 94.1613L75.3424 73.9581L93.9031 84.9274L103.94 39.5605Z" fill="#C80000"/>
<path d="M111.247 35.7203L105.751 35.4964L104.171 41.8016L103.695 40.7098L104.958 33.5818L108.952 33.1015L107.358 27.6796L109.024 27.1895L111.247 35.7203Z" fill="#C80000"/>
<path d="M67.628 58.1733L67.8618 68.0947L78.2792 75.6982L76.9106 76.5508L67.0335 68.8159L65.9716 59.0129L63.6572 56.8995L64.8276 55.6172L67.628 58.1733Z" fill="#C80000"/>
<path d="M116.573 153.871L124.01 154.818L118.651 160.547L122.7 167.368L121.206 168.254L116.573 160.449L118.651 157.185L115.353 154.818L113.558 144.885L115.267 144.576L116.573 153.871Z" fill="#C80000"/>
<path d="M72.6035 104.582L63.563 109.736L63.2856 109.894L62.9727 109.835L54.9634 108.329L54.6564 104.582L62.9727 108.329L72.2764 103.41L72.6035 104.582Z" fill="#C80000"/>
<path d="M82.1872 142.895L77.0825 152.587L75.2218 150.67L78.1909 156.985L73.7665 160.381L72.167 159.705L74.5925 153.96L73.5901 146.495L76.6118 149.608L79.8922 143.882L82.1872 142.895Z" fill="#C80000"/>
<path d="M127.864 68.3679L136.068 59.8326" stroke="#C80000" stroke-width="0.868438"/>
<path d="M127.915 110.775L142.81 114.675" stroke="#C80000" stroke-width="0.868438"/>
<path d="M128.475 86.0784L129.34 67.4716L128.475 67.4004L126.723 88.8849L131.937 83.8563L144.158 105.698L146.124 96.8994L133.081 78.37L128.475 86.0784Z" fill="#C80000"/>
<path d="M76.9675 126.855L88.8322 128.634L88.7033 129.494H76.9675L61.9733 135.384L61.5781 134.609L76.8301 126.834L76.9675 126.855Z" fill="#C80000"/>
<path d="M88.2891 175.627C88.2891 176.961 88.6159 178.281 89.251 179.513C89.886 180.745 90.8167 181.864 91.99 182.807C93.1634 183.75 94.5563 184.498 96.0894 185.008C97.6224 185.519 99.2655 185.781 100.925 185.781C102.584 185.781 104.227 185.519 105.76 185.008C107.293 184.498 108.686 183.75 109.86 182.807C111.033 181.864 111.964 180.745 112.599 179.513C113.234 178.281 113.561 176.961 113.561 175.627L100.925 175.627L88.2891 175.627Z" fill="#6B1A1A"/>
<path d="M93.9702 178.351C93.9702 179.605 94.1501 180.847 94.4995 182.005C94.849 183.163 95.3612 184.216 96.0069 185.102C96.6527 185.989 97.4192 186.692 98.2629 187.172C99.1066 187.651 100.011 187.898 100.924 187.898C101.837 187.898 102.742 187.651 103.585 187.172C104.429 186.692 105.195 185.989 105.841 185.102C106.487 184.216 106.999 183.163 107.349 182.005C107.698 180.847 107.878 179.605 107.878 178.351L100.924 178.351L93.9702 178.351Z" fill="#6B1A1A"/>
<path d="M113.082 25.2751C113.082 23.9416 112.755 22.6213 112.12 21.3893C111.485 20.1574 110.554 19.038 109.381 18.0951C108.208 17.1522 106.815 16.4043 105.282 15.894C103.749 15.3837 102.106 15.1211 100.446 15.1211C98.7869 15.1211 97.1438 15.3837 95.6108 15.894C94.0777 16.4043 92.6848 17.1522 91.5115 18.0951C90.3381 19.038 89.4074 20.1574 88.7724 21.3893C88.1374 22.6213 87.8105 23.9416 87.8105 25.2751L100.446 25.2751H113.082Z" fill="#6B1A1A"/>
<path d="M107.4 22.547C107.4 21.2932 107.22 20.0518 106.871 18.8935C106.521 17.7352 106.009 16.6828 105.363 15.7962C104.717 14.9097 103.951 14.2065 103.107 13.7267C102.264 13.2469 101.359 13 100.446 13C99.5329 13 98.6286 13.2469 97.7849 13.7267C96.9412 14.2065 96.1747 14.9097 95.5289 15.7962C94.8832 16.6828 94.371 17.7352 94.0215 18.8935C93.6721 20.0518 93.4922 21.2932 93.4922 22.547L100.446 22.547H107.4Z" fill="#6B1A1A"/>
<path d="M100.447 25.6865C112.468 25.6866 123.88 33.5096 132.464 47.2734C141.017 60.9874 146.421 80.1497 146.421 101.498C146.421 122.846 141.017 142.009 132.464 155.723C123.88 169.486 112.468 177.309 100.447 177.309C88.4265 177.309 77.0147 169.486 68.4307 155.723C59.8778 142.009 54.4737 122.846 54.4736 101.498C54.4736 80.1497 59.8778 60.9874 68.4307 47.2734C77.0147 33.5096 88.4263 25.6865 100.447 25.6865Z" stroke="#6B1A1A" stroke-width="6.94751"/>
<path d="M100.53 17.1289L100.728 17.9002C101.127 19.4601 102.164 20.7806 103.584 21.5397C102.164 22.2988 101.127 23.6193 100.728 25.1792L100.53 25.9505L100.333 25.1792C99.933 23.6193 98.8968 22.2988 97.4766 21.5397C98.8968 20.7806 99.933 19.4601 100.333 17.9002L100.53 17.1289Z" fill="#BDFF17"/>
<path d="M100.53 175.643L100.728 176.414C101.127 177.974 102.164 179.294 103.584 180.053C102.164 180.812 101.127 182.133 100.728 183.693L100.53 184.464L100.333 183.693C99.933 182.133 98.8968 180.812 97.4766 180.053C98.8968 179.294 99.933 177.974 100.333 176.414L100.53 175.643Z" fill="#BDFF17"/>
<path d="M158.742 24.5634L136 18L147.055 24.5634L140.365 26.6382L148.017 31.7046L146.086 38.449L164.481 42.1187L156.314 36.4061L160.066 31.7046L154.18 29.0252L158.742 24.5634Z" fill="#65AAFF"/>
<path d="M35.4898 132.221L45.0772 137.666L35.5686 143.246L35.4898 132.221Z" fill="#FFB7F7" fill-opacity="0.88"/>
<path d="M151.764 153L153.586 164.281H159.482L154.712 168.825L156.534 176.177L151.764 171.633L143.186 173.828L148.817 168.825L141 162.257L149.943 164.281L151.764 153Z" fill="#D3FF64"/>
</svg>
