<svg width="200" height="200" viewBox="0 0 200 200" fill="none" xmlns="http://www.w3.org/2000/svg">
<path d="M172.536 135.651H28.1748V63.6613L100.187 21.8086L172.536 63.6613V135.651Z" fill="#BDFF17"/>
<path d="M187.697 52.7185L180.198 68.8412L100.17 31.6185L20.5277 68.8345L13 52.7252L100.153 12L187.697 52.7185Z" fill="#0F100F"/>
<rect x="150.69" y="96.7285" width="94.0549" height="65.4091" transform="rotate(105 150.69 96.7285)" fill="#FF73AB"/>
<path d="M107.516 133.99L150.689 96.7307L126.275 187.844L107.516 133.99Z" fill="#FFADCE"/>
<rect x="41.8965" y="71.2559" width="116.915" height="22.7408" fill="#6B1A1A"/>
<rect x="50.126" y="47.8145" width="65.0764" height="85.9798" transform="rotate(10.7583 50.126 47.8145)" fill="#FFEE8F"/>
<path fill-rule="evenodd" clip-rule="evenodd" d="M46.5145 119.727C46.1907 121.431 46.5274 122.997 47.4507 124.226C48.3637 125.443 49.7804 126.234 51.4543 126.552C54.362 127.105 56.9601 126.064 59.1194 124.526C61.2691 122.994 63.0812 120.898 64.472 119.142C64.5738 119.014 64.6432 118.863 64.6743 118.702C64.7053 118.541 64.6971 118.375 64.6503 118.218C64.0114 116.075 63.0836 113.46 61.6363 111.243C60.1864 109.019 58.1434 107.094 55.2558 106.545C53.5752 106.226 51.9677 106.446 50.6717 107.244C49.3646 108.05 48.4783 109.384 48.1554 111.083C47.8827 112.518 48.1894 113.807 49.0208 114.9C49.3097 115.275 49.6412 115.615 50.0086 115.913C49.5574 116.056 49.1244 116.25 48.7182 116.493C47.5436 117.205 46.7872 118.291 46.5145 119.727Z" fill="#FF3D3D"/>
<rect x="84.4414" y="63.5781" width="65.0764" height="67.5163" transform="rotate(-19.21 84.4414 63.5781)" fill="#0F100F"/>
<rect x="131.904" y="92.6113" width="23.7657" height="17.0036" transform="rotate(-19.21 131.904 92.6113)" fill="white"/>
<path d="M153.269 87.149L157.632 99.6708L138.575 106.311L134.212 93.7891L153.269 87.149Z" fill="#9EDDFF"/>
</svg>
