<svg width="200" height="200" viewBox="0 0 200 200" fill="none" xmlns="http://www.w3.org/2000/svg">
<path d="M138.812 30.1775C110.475 6.99784 42.0807 29.4067 68.4038 64.1332C80.5782 80.1943 110.852 67.2202 93.2113 47.7537C45.2418 -5.18158 -9.3222 84.1721 55.439 112.776C86.6909 126.579 195.84 76.254 153.374 52.4101C105.063 25.2846 50.8979 174.41 11.707 137.954C-11.3679 116.489 79.4126 72.9713 114.876 83.5667C150.594 94.2379 153.244 141.098 174.889 136.892C190.864 133.788 196.962 119.027 187.325 112.776C158.07 93.7991 143.461 168.293 107.176 172.73C87.7064 175.111 49.4442 176.329 49.4442 155.85C49.4442 94.9159 146.673 169.36 161.868 174.26C179.377 179.905 183.958 155.85 171.11 152.842" stroke="#86B510" stroke-width="3.25559" stroke-linecap="round"/>
<circle cx="87.4481" cy="69.4501" r="6.48719" fill="#BDFF17"/>
<circle cx="124.065" cy="23.4872" r="6.48719" fill="#BDFF17"/>
<circle cx="26.0028" cy="86.3954" r="6.48719" fill="#FFAE00"/>
<circle cx="96.4872" cy="110.487" r="6.48719" fill="#BDFF17"/>
<circle cx="151.344" cy="116.974" r="6.48719" fill="#BDFF17"/>
<circle cx="98.3309" cy="140.612" r="6.48719" fill="#FFAE00"/>
<circle cx="45.4628" cy="161.63" r="6.48719" fill="#BDFF17"/>
<path d="M20.749 136.966C21.1826 136.037 22.5034 136.037 22.937 136.966V136.966C23.233 137.6 24.004 137.851 24.6159 137.512V137.512C25.5127 137.015 26.5812 137.792 26.3861 138.798V138.798C26.253 139.485 26.7295 140.14 27.4238 140.226V140.226C28.4411 140.351 28.8493 141.608 28.0999 142.307V142.307C27.5885 142.784 27.5885 143.595 28.0999 144.072V144.072C28.8493 144.772 28.4411 146.028 27.4238 146.153V146.153C26.7295 146.239 26.253 146.895 26.3861 147.581V147.581C26.5812 148.588 25.5127 149.364 24.6159 148.868V148.868C24.004 148.529 23.233 148.779 22.937 149.413V149.413C22.5034 150.342 21.1826 150.342 20.749 149.413V149.413C20.453 148.779 19.6821 148.529 19.0701 148.868V148.868C18.1733 149.364 17.1048 148.588 17.2999 147.581V147.581C17.433 146.895 16.9565 146.239 16.2622 146.153V146.153C15.2449 146.028 14.8367 144.772 15.5861 144.072V144.072C16.0975 143.595 16.0975 142.784 15.5861 142.307V142.307C14.8367 141.608 15.2449 140.351 16.2622 140.226V140.226C16.9565 140.14 17.433 139.485 17.2999 138.798V138.798C17.1048 137.792 18.1733 137.015 19.0701 137.512V137.512C19.6821 137.851 20.453 137.6 20.749 136.966V136.966Z" fill="#E865FF"/>
<path d="M136.643 42.8413C137.077 41.9124 138.398 41.9124 138.832 42.8413V42.8413C139.128 43.4751 139.898 43.7256 140.51 43.3868V43.3868C141.407 42.8902 142.476 43.6666 142.281 44.6729V44.6729C142.148 45.3596 142.624 46.0154 143.318 46.101V46.101C144.336 46.2265 144.744 47.4826 143.994 48.182V48.182C143.483 48.6594 143.483 49.47 143.994 49.9473V49.9473C144.744 50.6468 144.336 51.9029 143.318 52.0283V52.0283C142.624 52.1139 142.148 52.7697 142.281 53.4565V53.4565C142.476 54.4628 141.407 55.2391 140.51 54.7426V54.7426C139.898 54.4038 139.128 54.6543 138.832 55.2881V55.2881C138.398 56.2169 137.077 56.2169 136.643 55.2881V55.2881C136.348 54.6543 135.577 54.4038 134.965 54.7426V54.7426C134.068 55.2391 132.999 54.4628 133.194 53.4565V53.4565C133.328 52.7697 132.851 52.1139 132.157 52.0283V52.0283C131.139 51.9029 130.731 50.6468 131.481 49.9473V49.9473C131.992 49.47 131.992 48.6594 131.481 48.182V48.182C130.731 47.4826 131.139 46.2265 132.157 46.101V46.101C132.851 46.0154 133.328 45.3596 133.194 44.6729V44.6729C132.999 43.6666 134.068 42.8902 134.965 43.3868V43.3868C135.577 43.7256 136.348 43.4751 136.643 42.8413V42.8413Z" fill="#E865FF"/>
<path d="M37.8827 31.4291C38.3164 30.5003 39.6372 30.5003 40.0708 31.4291V31.4291C40.3668 32.063 41.1377 32.3135 41.7497 31.9746V31.9746C42.6465 31.4781 43.715 32.2544 43.5199 33.2608V33.2608C43.3868 33.9475 43.8633 34.6033 44.5576 34.6889V34.6889C45.5749 34.8143 45.9831 36.0705 45.2337 36.7699V36.7699C44.7223 37.2473 44.7223 38.0579 45.2337 38.5352V38.5352C45.9831 39.2347 45.5749 40.4908 44.5576 40.6162V40.6162C43.8633 40.7018 43.3868 41.3576 43.5199 42.0444V42.0444C43.715 43.0507 42.6465 43.827 41.7497 43.3305V43.3305C41.1377 42.9917 40.3668 43.2422 40.0708 43.876V43.876C39.6372 44.8048 38.3164 44.8048 37.8827 43.876V43.876C37.5868 43.2422 36.8158 42.9917 36.2039 43.3305V43.3305C35.3071 43.827 34.2385 43.0507 34.4337 42.0444V42.0444C34.5668 41.3576 34.0903 40.7018 33.396 40.6162V40.6162C32.3787 40.4908 31.9705 39.2347 32.7199 38.5352V38.5352C33.2313 38.0579 33.2313 37.2473 32.7199 36.7699V36.7699C31.9705 36.0705 32.3787 34.8143 33.396 34.6889V34.6889C34.0903 34.6033 34.5668 33.9475 34.4337 33.2608V33.2608C34.2385 32.2544 35.3071 31.4781 36.2039 31.9746V31.9746C36.8158 32.3135 37.5868 32.063 37.8827 31.4291V31.4291Z" fill="#BDFF17"/>
<path d="M121.85 136.966C122.283 136.037 123.604 136.037 124.038 136.966V136.966C124.334 137.6 125.105 137.851 125.717 137.512V137.512C126.613 137.015 127.682 137.792 127.487 138.798V138.798C127.354 139.485 127.83 140.14 128.524 140.226V140.226C129.542 140.351 129.95 141.608 129.201 142.307V142.307C128.689 142.784 128.689 143.595 129.201 144.072V144.072C129.95 144.772 129.542 146.028 128.524 146.153V146.153C127.83 146.239 127.354 146.895 127.487 147.581V147.581C127.682 148.588 126.613 149.364 125.717 148.868V148.868C125.105 148.529 124.334 148.779 124.038 149.413V149.413C123.604 150.342 122.283 150.342 121.85 149.413V149.413C121.554 148.779 120.783 148.529 120.171 148.868V148.868C119.274 149.364 118.205 148.588 118.4 147.581V147.581C118.534 146.895 118.057 146.239 117.363 146.153V146.153C116.345 146.028 115.937 144.772 116.687 144.072V144.072C117.198 143.595 117.198 142.784 116.687 142.307V142.307C115.937 141.608 116.345 140.351 117.363 140.226V140.226C118.057 140.14 118.534 139.485 118.4 138.798V138.798C118.205 137.792 119.274 137.015 120.171 137.512V137.512C120.783 137.851 121.554 137.6 121.85 136.966V136.966Z" fill="#BDFF17"/>
<path d="M152.329 161.894C152.763 160.965 154.083 160.965 154.517 161.894V161.894C154.813 162.528 155.584 162.778 156.196 162.439V162.439C157.093 161.943 158.161 162.719 157.966 163.726V163.726C157.833 164.412 158.31 165.068 159.004 165.154V165.154C160.021 165.279 160.429 166.535 159.68 167.235V167.235C159.169 167.712 159.169 168.523 159.68 169V169C160.429 169.7 160.021 170.956 159.004 171.081V171.081C158.31 171.167 157.833 171.822 157.966 172.509V172.509C158.161 173.516 157.093 174.292 156.196 173.795V173.795C155.584 173.457 154.813 173.707 154.517 174.341V174.341C154.083 175.27 152.763 175.27 152.329 174.341V174.341C152.033 173.707 151.262 173.457 150.65 173.795V173.795C149.753 174.292 148.685 173.516 148.88 172.509V172.509C149.013 171.822 148.537 171.167 147.842 171.081V171.081C146.825 170.956 146.417 169.7 147.166 169V169C147.678 168.523 147.678 167.712 147.166 167.235V167.235C146.417 166.535 146.825 165.279 147.842 165.154V165.154C148.537 165.068 149.013 164.412 148.88 163.726V163.726C148.685 162.719 149.753 161.943 150.65 162.439V162.439C151.262 162.778 152.033 162.528 152.329 161.894V161.894Z" fill="#E865FF"/>
<rect x="152.364" y="73.125" width="10.099" height="10.099" transform="rotate(-4.94964 152.364 73.125)" fill="#BDFF17"/>
<rect x="74.4395" y="23.2656" width="10.099" height="10.099" transform="rotate(-20.9507 74.4395 23.2656)" fill="#FFAE00"/>
<rect x="47.5449" y="104.605" width="10.099" height="10.099" transform="rotate(75 47.5449 104.605)" fill="#BDFF17"/>
<path d="M104.083 79.3925L104.083 91.361L93.7179 85.3768L104.083 79.3925Z" fill="#65AAFF"/>
<path d="M64.2105 126.268L69.3152 137.093L57.3879 136.101L64.2105 126.268Z" fill="#65AAFF"/>
<path d="M78.9594 167.649L88.13 175.339L76.8844 179.436L78.9594 167.649Z" fill="#65AAFF"/>
</svg>
