<svg width="200" height="200" viewBox="0 0 200 200" fill="none" xmlns="http://www.w3.org/2000/svg">
<g clip-path="url(#clip0_3064_19893)">
<path d="M47.9278 47.4076C45.2932 40.6565 41.6047 27.1543 47.9278 27.1543C54.2509 27.1543 50.5624 40.6565 47.9278 47.4076Z" stroke="#FFD363" stroke-width="3"/>
<path d="M152.374 47.4076C149.739 40.6565 146.051 27.1543 152.374 27.1543C158.697 27.1543 155.009 40.6565 152.374 47.4076Z" stroke="#FFD363" stroke-width="3"/>
<path d="M99.5576 3L99.4995 112.729" stroke="#FFD363" stroke-width="3" stroke-linecap="round"/>
<path d="M47.9617 46.123C51.2503 46.1231 52.8872 47.3079 53.2946 47.9005C53.5168 54.6779 56.8503 56.7888 59.6279 58.6776C62.4057 60.5663 72.2939 62.0107 81.7377 67.0104C91.1816 72.0101 94.7671 82.1649 94.7672 85.661C94.7673 89.1571 95.2103 92.5164 90.8481 99.231C85.4193 107.588 63.9605 115.119 55.6276 119.452C48.9614 122.919 48.1738 127.35 47.9617 129.896C47.7497 127.35 46.9615 122.919 40.2952 119.452C31.9622 115.119 10.5042 107.588 5.0753 99.231C0.713178 92.5164 1.1561 89.1571 1.15623 85.661C1.15635 82.1649 4.7418 72.0101 14.1857 67.0104C23.6296 62.0107 33.518 60.5664 36.2956 58.6776C39.0732 56.7888 42.4066 54.6778 42.6288 47.9005C43.0364 47.3078 44.6733 46.123 47.9617 46.123Z" fill="#FFD363"/>
<path d="M152.365 46.123C155.654 46.1231 157.29 47.3079 157.698 47.9005C157.92 54.6779 161.254 56.7888 164.031 58.6776C166.809 60.5663 176.697 62.0107 186.141 67.0104C195.585 72.0101 199.17 82.1649 199.171 85.661C199.171 89.1571 199.614 92.5164 195.251 99.231C189.823 107.588 168.364 115.119 160.031 119.452C153.365 122.919 152.577 127.35 152.365 129.896C152.153 127.35 151.365 122.919 144.699 119.452C136.366 115.119 114.908 107.588 109.479 99.231C105.116 92.5164 105.559 89.1571 105.56 85.661C105.56 82.1649 109.145 72.0101 118.589 67.0104C128.033 62.0107 137.921 60.5664 140.699 58.6776C143.477 56.7888 146.81 54.6778 147.032 47.9005C147.44 47.3078 149.077 46.123 152.365 46.123Z" fill="#FFD363"/>
<path d="M40.5537 41.2812H55.3701L57.3701 53.5332H38.5537L40.5537 41.2812Z" fill="#BDFF17"/>
<path d="M145 41.2812H159.816L161.816 53.5332H143L145 41.2812Z" fill="#BDFF17"/>
<circle cx="99.4705" cy="159.087" r="37.0261" fill="url(#paint0_linear_3064_19893)"/>
<circle cx="99.4998" cy="113.259" r="7.62964" fill="#BDFF17"/>
<path d="M80.1915 26.5925C77.7202 23.1943 78.6667 18.7363 82.3056 16.6354C85.9445 14.5345 90.8979 15.5862 93.3692 18.9844L98.4028 25.9059L92.2254 29.4725C88.3592 31.7046 83.0966 30.5872 80.4709 26.9768L80.1915 26.5925Z" stroke="#FFD363" stroke-width="3"/>
<path d="M118.694 26.5925C121.166 23.1943 120.219 18.7363 116.58 16.6354C112.941 14.5345 107.988 15.5862 105.517 18.9844L100.483 25.9059L106.66 29.4725C110.527 31.7046 115.789 30.5872 118.415 26.9768L118.694 26.5925Z" stroke="#FFD363" stroke-width="3"/>
<path d="M8.61621 73.3838C16.6883 81.4559 16.6883 94.5434 8.61621 102.616C0.544074 94.5434 0.544074 81.4559 8.61621 73.3838Z" fill="white"/>
<path d="M19.8477 73.3838C27.9198 81.4559 27.9198 94.5434 19.8477 102.616C11.7755 94.5434 11.7755 81.4559 19.8477 73.3838Z" fill="white"/>
<path d="M31.0791 73.3838C39.1512 81.4559 39.1512 94.5434 31.0791 102.616C23.007 94.5434 23.007 81.4559 31.0791 73.3838Z" fill="white"/>
<path d="M42.3115 73.3838C50.3837 81.4559 50.3837 94.5434 42.3115 102.616C34.2394 94.5434 34.2394 81.4559 42.3115 73.3838Z" fill="white"/>
<path d="M53.543 73.3838C61.6151 81.4559 61.6151 94.5434 53.543 102.616C45.4708 94.5434 45.4708 81.4559 53.543 73.3838Z" fill="white"/>
<path d="M64.7744 73.3838C72.8466 81.4559 72.8466 94.5434 64.7744 102.616C56.7023 94.5434 56.7023 81.4559 64.7744 73.3838Z" fill="white"/>
<path d="M76.0068 73.3838C84.079 81.4559 84.079 94.5434 76.0068 102.616C67.9347 94.5434 67.9347 81.4559 76.0068 73.3838Z" fill="white"/>
<path d="M87.2383 73.3838C95.3104 81.4559 95.3104 94.5434 87.2383 102.616C79.1661 94.5434 79.1661 81.4559 87.2383 73.3838Z" fill="white"/>
<path d="M113.02 73.3838C121.092 81.4559 121.092 94.5434 113.02 102.616C104.947 94.5434 104.947 81.4559 113.02 73.3838Z" fill="white"/>
<path d="M124.251 73.3838C132.323 81.4559 132.323 94.5434 124.251 102.616C116.179 94.5434 116.179 81.4559 124.251 73.3838Z" fill="white"/>
<path d="M135.482 73.3838C143.555 81.4559 143.555 94.5434 135.482 102.616C127.41 94.5434 127.41 81.4559 135.482 73.3838Z" fill="white"/>
<path d="M146.715 73.3838C154.787 81.4559 154.787 94.5434 146.715 102.616C138.643 94.5434 138.643 81.4559 146.715 73.3838Z" fill="white"/>
<path d="M157.946 73.3838C166.018 81.4559 166.018 94.5434 157.946 102.616C149.874 94.5434 149.874 81.4559 157.946 73.3838Z" fill="white"/>
<path d="M169.178 73.3838C177.25 81.4559 177.25 94.5434 169.178 102.616C161.106 94.5434 161.106 81.4559 169.178 73.3838Z" fill="white"/>
<path d="M180.41 73.3838C188.482 81.4559 188.482 94.5434 180.41 102.616C172.338 94.5434 172.338 81.4559 180.41 73.3838Z" fill="white"/>
<path d="M191.642 73.3838C199.714 81.4559 199.714 94.5434 191.642 102.616C183.569 94.5434 183.569 81.4559 191.642 73.3838Z" fill="white"/>
<path d="M13.7764 77.0605C20.2335 83.5177 20.2335 93.9868 13.7764 100.444C7.31923 93.9868 7.31923 83.5177 13.7764 77.0605Z" fill="#3475FF"/>
<path d="M25.1602 77.0605C31.6173 83.5177 31.6173 93.9868 25.1602 100.444C18.703 93.9868 18.703 83.5177 25.1602 77.0605Z" fill="#3475FF"/>
<path d="M36.543 77.0605C43.0001 83.5177 43.0001 93.9868 36.543 100.444C30.0858 93.9868 30.0858 83.5177 36.543 77.0605Z" fill="#3475FF"/>
<path d="M47.9268 77.0605C54.3839 83.5177 54.3839 93.9868 47.9268 100.444C41.4696 93.9868 41.4696 83.5177 47.9268 77.0605Z" fill="#3475FF"/>
<path d="M59.3105 77.0605C65.7677 83.5177 65.7677 93.9868 59.3105 100.444C52.8534 93.9868 52.8534 83.5177 59.3105 77.0605Z" fill="#3475FF"/>
<path d="M70.6934 77.0605C77.1505 83.5177 77.1505 93.9868 70.6934 100.444C64.2362 93.9868 64.2362 83.5177 70.6934 77.0605Z" fill="#3475FF"/>
<path d="M82.0771 77.0605C88.5343 83.5177 88.5343 93.9868 82.0771 100.444C75.62 93.9868 75.62 83.5177 82.0771 77.0605Z" fill="#3475FF"/>
<path d="M118.18 77.0605C124.637 83.5177 124.637 93.9868 118.18 100.444C111.723 93.9868 111.723 83.5177 118.18 77.0605Z" fill="#3475FF"/>
<path d="M129.563 77.0605C136.021 83.5177 136.021 93.9868 129.563 100.444C123.106 93.9868 123.106 83.5177 129.563 77.0605Z" fill="#3475FF"/>
<path d="M140.946 77.0605C147.403 83.5177 147.403 93.9868 140.946 100.444C134.489 93.9868 134.489 83.5177 140.946 77.0605Z" fill="#3475FF"/>
<path d="M152.33 77.0605C158.787 83.5177 158.787 93.9868 152.33 100.444C145.873 93.9868 145.873 83.5177 152.33 77.0605Z" fill="#3475FF"/>
<path d="M163.714 77.0605C170.171 83.5177 170.171 93.9868 163.714 100.444C157.257 93.9868 157.257 83.5177 163.714 77.0605Z" fill="#3475FF"/>
<path d="M175.097 77.0605C181.554 83.5177 181.554 93.9868 175.097 100.444C168.64 93.9868 168.64 83.5177 175.097 77.0605Z" fill="#3475FF"/>
<path d="M186.48 77.0605C192.938 83.5177 192.938 93.9868 186.48 100.444C180.023 93.9868 180.023 83.5177 186.48 77.0605Z" fill="#3475FF"/>
<rect x="71.6445" y="149.83" width="13.0907" height="13.0907" transform="rotate(45 71.6445 149.83)" fill="#232422"/>
<rect x="90.1572" y="149.83" width="13.0907" height="13.0907" transform="rotate(45 90.1572 149.83)" fill="#232422"/>
<rect x="108.67" y="149.83" width="13.0907" height="13.0907" transform="rotate(45 108.67 149.83)" fill="#232422"/>
<rect x="127.184" y="149.83" width="13.0907" height="13.0907" transform="rotate(45 127.184 149.83)" fill="#232422"/>
<rect x="127.184" y="154.642" width="6.28597" height="6.28597" transform="rotate(45 127.184 154.642)" fill="#2CB5FF"/>
<rect x="108.67" y="154.642" width="6.28597" height="6.28597" transform="rotate(45 108.67 154.642)" fill="#BDFF17"/>
<path d="M90.1572 154.642L94.6021 159.086L90.1572 163.531L85.7124 159.086L90.1572 154.642Z" fill="#BDFF17"/>
<path d="M71.6445 154.642L76.0894 159.086L71.6445 163.531L67.1997 159.086L71.6445 154.642Z" fill="#2CB5FF"/>
<rect x="80.9014" y="129.688" width="13.0907" height="13.0907" transform="rotate(45 80.9014 129.688)" fill="#30322F"/>
<rect x="99.4141" y="129.688" width="13.0907" height="13.0907" transform="rotate(45 99.4141 129.688)" fill="#30322F"/>
<rect x="117.927" y="129.688" width="13.0907" height="13.0907" transform="rotate(45 117.927 129.688)" fill="#30322F"/>
<rect x="117.928" y="134.499" width="6.28597" height="6.28597" transform="rotate(45 117.928 134.499)" fill="#BDFF17"/>
<rect x="99.4141" y="134.499" width="6.28597" height="6.28597" transform="rotate(45 99.4141 134.499)" fill="#2CB5FF"/>
<rect x="80.9004" y="134.499" width="6.28597" height="6.28597" transform="rotate(45 80.9004 134.499)" fill="#BDFF17"/>
<rect x="80.9014" y="169.974" width="13.0907" height="13.0907" transform="rotate(45 80.9014 169.974)" fill="#30322F"/>
<rect x="99.4141" y="169.974" width="13.0907" height="13.0907" transform="rotate(45 99.4141 169.974)" fill="#30322F"/>
<rect x="117.927" y="169.974" width="13.0907" height="13.0907" transform="rotate(45 117.927 169.974)" fill="#30322F"/>
<rect x="117.928" y="174.785" width="6.28597" height="6.28597" transform="rotate(45 117.928 174.785)" fill="#BDFF17"/>
<rect x="99.4141" y="174.785" width="6.28597" height="6.28597" transform="rotate(45 99.4141 174.785)" fill="#2CB5FF"/>
<rect x="80.9004" y="174.785" width="6.28597" height="6.28597" transform="rotate(45 80.9004 174.785)" fill="#BDFF17"/>
<path d="M99.4425 24.8232C98.4982 28.1108 93.7391 36.0827 88.2061 37.0714" stroke="#FFD363" stroke-width="3" stroke-linecap="round"/>
<path d="M99.5575 24.8232C100.502 28.1108 105.261 36.0827 110.794 37.0714" stroke="#FFD363" stroke-width="3" stroke-linecap="round"/>
<circle cx="47.9618" cy="133.228" r="3.3319" fill="#BDFF17"/>
</g>
<defs>
<linearGradient id="paint0_linear_3064_19893" x1="99.4705" y1="122.061" x2="99.4705" y2="196.113" gradientUnits="userSpaceOnUse">
<stop stop-color="#222421"/>
<stop offset="1" stop-color="#0F100F"/>
</linearGradient>
<clipPath id="clip0_3064_19893">
<rect width="200" height="200" fill="white"/>
</clipPath>
</defs>
</svg>
