<svg width="200" height="200" viewBox="0 0 200 200" fill="none" xmlns="http://www.w3.org/2000/svg">
<g clip-path="url(#clip0_3064_19965)">
<path d="M134.8 124.927L137.487 136.715L149.483 135.208L143.964 145.965L154.122 152.521L142.98 157.214L146.547 168.766L134.995 165.199L130.302 176.342L123.745 166.183L112.988 171.702L114.495 159.706L102.707 157.02L111.573 148.799L104.269 139.163L116.345 138.564L116.944 126.489L126.579 133.792L134.8 124.927Z" fill="#688C0D"/>
<path d="M161.434 105.043L160.979 117.125L172.956 118.774L164.841 127.737L181.247 142.033L160.979 138.348L163.33 156.168L151.199 143.994L143.782 153.542L140.078 142.033L128.259 144.58L132.82 133.383L122.129 127.737L132.82 122.09L128.259 110.893L140.078 113.44L143.782 101.931L151.199 111.479L161.434 105.043Z" fill="#ACE815"/>
<path d="M160.044 68.6503L162.025 86.1051L181.524 75.7646L170.392 93.1257L186.879 100.935L172.289 103.882L184.283 123.139L166.828 113.341L165.233 124.926L156.564 117.077L149.219 134.752L146.301 113.341L124.114 120.012L140.84 103.882L116.514 95.3675L142.736 93.1257L130.102 64.0439L151.103 86.1051L160.044 68.6503Z" fill="#86B510"/>
<path d="M161.435 99.4195L160.979 87.3377L172.956 85.6885L164.841 76.7263L172.956 67.7641L160.979 66.1149L170.042 38.0197L151.199 60.4687L140.078 39.6589L140.078 62.4296L126.402 54.0331L132.82 71.0801L103.323 70.0352L132.82 82.3725L128.259 93.5698L140.078 91.023L137.66 126.888L151.199 92.9839L161.435 99.4195Z" fill="#ACE815"/>
<path d="M134.8 79.5342L137.486 67.7461L149.482 69.2531L143.963 58.4959L154.122 51.9394L142.979 47.2464L159.704 28.1191L134.994 39.2615L130.301 28.1191L123.745 38.2773L104.711 21.438L114.495 44.7544L102.707 47.4411L111.572 55.662L95.2299 75.0761L116.344 65.8964L116.943 77.9719L126.579 70.6688L134.8 79.5342Z" fill="#688C0D"/>
<path d="M104.4 16.9932L110.046 27.6842L121.244 23.1237L118.697 34.9428L130.206 38.6468L120.658 46.0637L127.093 56.2989L115.012 55.8432L113.362 67.8206L104.4 59.7054L95.4379 67.8206L93.7887 55.8432L81.7069 56.2989L88.1425 46.0637L78.5944 38.6468L90.1034 34.9428L87.5566 23.1237L98.7539 27.6842L104.4 16.9932Z" fill="#86B510"/>
<path d="M95.8273 19.8443L89.7271 42.1769L104.031 43.4788L93.5894 52.7883L101.704 61.7506L89.7271 63.3997L90.1829 75.4815L79.9476 69.046L68.8267 95.8264L68.8267 67.085L44.2609 75.4815L61.5681 58.4346L30.9788 52.7882L61.5681 47.1421L46.8005 31.1732L68.8267 38.4916L69.8487 24.9228L79.9476 36.5307L95.8273 19.8443Z" fill="#ACE815"/>
<path d="M69.4071 36.7115L66.234 61.7668L78.2301 60.2598L72.7111 71.017L94.3692 79.0383L71.7269 82.2665L84.3679 101.394L63.7419 90.2514L61.0314 109.28L52.4925 91.2356L34.5993 112.614L43.2423 84.7585L20.3117 84.7585L40.3196 73.8509L25.074 61.7668L45.092 63.6165L34.5993 36.7115L55.3264 58.8441L69.4071 36.7115Z" fill="#688C0D"/>
<path d="M59.8389 58.1123L56.5228 85.6555L67.7201 81.0951L65.1733 92.9141L86.4549 94.7459L67.1342 104.035L83.5532 117.677L61.488 113.815V134.281L50.8766 117.677L34.619 132.468L40.2652 113.815L17.1777 125.213L34.619 104.035L17.1777 96.6181L36.5799 92.9141L25.8825 70.0817L45.2304 85.6555L59.8389 58.1123Z" fill="#86B510"/>
<path d="M68.2362 164.788L66.2349 142.694L88.6882 154.482L72.712 133.443L96.5684 128.199L71.7278 122.194L81.3701 105.496L63.7429 114.209L55.3274 86.5451L52.4934 113.225L34.0867 100.805L43.2432 119.702L18.7009 118.067L40.3205 130.61L26.0186 142.694L45.0929 140.844L40.3204 165.726L55.3273 145.616L68.2362 164.788Z" fill="#ACE815"/>
<path d="M90.1812 174.367L89.7255 162.285L101.703 160.636L93.5877 151.674L118.02 137.377L89.7255 141.062L99.4297 106.942L79.946 135.416L72.529 125.868L70.123 141.062L48.0336 124.657L61.5665 146.028L36.6608 153.308L61.5665 157.32L44.7531 175.834L68.8251 165.971L72.529 192.019L79.946 167.931L90.1812 174.367Z" fill="#688C0D"/>
<path d="M104.758 118.537L109.787 144.656L129.169 136.563L117.493 151.122H146.27L119.239 161.027L124.972 170.144L114.21 169.738L117.493 188.377L104.758 173.178L95.3063 186.249V169.738L78.0959 175.619L90.2771 161.027L69.083 152.74L92.0237 151.122L80.8692 122.928L99.729 144.656L104.758 118.537Z" fill="#ACE815"/>
<path d="M147.355 49.1387L148.961 52.7177L152.247 50.5752L151.663 54.4544L155.586 54.4286L152.998 57.3764L156.312 59.4755L152.54 60.5559L154.193 64.1135L150.437 62.9836L149.904 66.8701L147.355 63.8885L144.805 66.8701L144.273 62.9836L140.516 64.1135L142.169 60.5559L138.398 59.4755L141.712 57.3764L139.123 54.4286L143.046 54.4544L142.462 50.5752L145.749 52.7177L147.355 49.1387Z" fill="#5DAEEE"/>
<path d="M46.5293 77.7272L47.1714 81.5972L50.8947 80.3617L49.3427 83.9645L53.1429 84.9381L49.8894 87.1299L52.5599 90.0035L48.6379 90.0883L49.331 93.9496L45.9857 91.9006L44.4812 95.5235L42.7748 91.9912L39.5504 94.2257L40.0245 90.3315L36.104 90.468L38.6082 87.4484L35.2362 85.4436L38.9754 84.2572L37.2226 80.7476L41.0097 81.7711L41.4325 77.8711L44.065 80.7795L46.5293 77.7272Z" fill="#F0F2EB"/>
<path d="M136.03 138.451L136.621 142.329L140.36 141.143L138.761 144.725L142.548 145.748L139.266 147.897L141.899 150.806L137.976 150.839L138.618 154.709L135.3 152.616L133.748 156.219L132.088 152.665L128.835 154.857L129.36 150.969L125.438 151.054L127.982 148.068L124.636 146.019L128.391 144.882L126.684 141.349L130.457 142.422L130.931 138.528L133.525 141.471L136.03 138.451Z" fill="#FFB3C9"/>
<path d="M50.5596 115.096L52.4717 118.544C54.0535 121.396 56.5973 123.593 59.649 124.743C58.0438 127.582 57.4996 130.899 58.1135 134.102L58.8556 137.974L56.9434 134.526C55.3617 131.674 52.8179 129.477 49.7661 128.327C51.3714 125.488 51.9156 122.171 51.3017 118.968L50.5596 115.096Z" fill="#FF91D9"/>
<path d="M163.071 81.6555L161.962 84.5582C161.044 86.9593 161.009 89.6085 161.864 92.0329C159.337 92.505 157.06 93.8597 155.44 95.8551L153.481 98.2673L154.59 95.3646C155.508 92.9634 155.543 90.3143 154.688 87.8899C157.215 87.4177 159.492 86.0631 161.112 84.0677L163.071 81.6555Z" fill="#FBFF81"/>
<path d="M55.515 57.1289L56.5672 61.8488L61.1908 63.013L57.04 65.7932L57.04 70.7547L53.7291 66.9284L48.9568 68.2393L51.3219 64.4407L48.3262 60.543L52.6344 61.2315L55.515 57.1289Z" fill="#FFE120"/>
<path d="M151.296 108.787L147.43 111.692L148.276 116.384L144.031 113.749L139.511 115.795L141.632 111.201L138.47 107.394L142.906 107.982L145.221 103.646L146.37 107.855L151.296 108.787Z" fill="#FFE120"/>
<path d="M82.5762 154.594L80.3726 158.898L83.188 162.746L78.2182 162.236L75.0506 166.055L74.9452 160.996L70.4352 158.958L74.6807 157.544L74.8635 152.632L77.7398 155.912L82.5762 154.594Z" fill="#FFE120"/>
<path d="M100.844 16.4287C107.58 16.4287 113.042 21.8903 113.042 28.627V41.71H113.228L115.696 44.6182C116.184 45.1928 115.776 46.075 115.022 46.0752H86.7314C85.9675 46.0752 85.5629 45.1718 86.0713 44.6016L88.6455 41.7139V28.627C88.6456 21.8903 94.1071 16.4288 100.844 16.4287Z" fill="#FFE712"/>
<path d="M111.112 17.7002L100.845 13.748L90.5781 17.7002V8.53809L100.845 12.4893L111.112 8.53809V17.7002Z" fill="#FF3D3D"/>
</g>
<defs>
<clipPath id="clip0_3064_19965">
<rect width="200" height="200" fill="white"/>
</clipPath>
</defs>
</svg>
