<svg width="794" height="135" viewBox="0 0 794 135" fill="none" xmlns="http://www.w3.org/2000/svg">
<path d="M299.628 58.6914C302.052 58.6914 303.264 59.6152 303.264 61.4619C303.264 63.0777 302.571 64.9246 301.187 67.002C300.379 68.2715 299.109 70.4066 297.378 73.4072C295.647 76.4081 293.857 79.6983 292.011 83.2764C290.28 86.7389 288.778 89.9708 287.509 92.9717C286.239 95.9721 285.605 98.1648 285.604 99.5498C285.604 101.166 286.413 101.974 288.028 101.974C289.298 101.974 290.856 101.339 292.703 100.069C294.55 98.6843 296.454 97.0683 298.416 95.2217C301.763 91.9901 304.822 88.4124 307.592 84.4883C310.477 80.564 312.96 76.8124 315.037 73.2344C315.383 72.6572 315.961 71.6185 316.769 70.1182C317.692 68.6178 318.615 67.175 319.538 65.79C320.577 64.4052 321.385 63.5972 321.962 63.3662C322.539 63.1354 323.694 62.5007 325.425 61.4619C327.156 60.4232 328.887 59.7301 330.618 59.3838C332.234 59.0376 333.446 58.8643 334.254 58.8643C335.524 58.8643 336.159 59.2108 336.159 59.9033C336.159 60.8267 335.639 61.2881 334.601 61.2881C333.331 61.2881 332.176 61.6346 331.138 62.3271C330.099 62.9042 329.291 63.6548 328.714 64.5781C327.675 66.0786 326.175 68.7909 324.213 72.7148C322.366 76.6391 320.289 81.1987 317.98 86.3926C315.788 91.4709 313.594 96.6645 311.401 101.974C309.208 107.167 307.189 111.958 305.342 116.344C302.736 122.531 299.773 128.566 296.453 134.447H289.5C291.57 131.562 293.504 128.529 295.3 125.347C299.339 118.191 302.975 110.919 306.207 103.532C308.054 99.1463 309.67 94.8758 311.055 90.7207C312.555 86.5656 313.883 82.814 315.037 79.4668C313.883 81.0827 312.382 83.0451 310.535 85.3535C308.688 87.6619 306.842 89.9125 304.995 92.1055C303.148 94.183 301.532 95.8564 300.147 97.126C297.262 99.896 294.146 102.262 290.799 104.225C287.567 106.071 284.219 106.995 280.757 106.995C279.603 106.995 278.621 106.763 277.813 106.302C277.006 105.84 276.602 104.974 276.602 103.705C276.602 102.089 277.006 100.185 277.813 97.9922C278.737 95.7992 279.718 93.606 280.757 91.4131C281.796 89.2202 282.661 87.4309 283.354 86.0459C284.739 83.3913 286.066 80.7367 287.336 78.082C288.605 75.4275 289.702 73.1767 290.625 71.3301C291.548 69.5988 292.011 68.4443 292.011 67.8672C292.011 66.944 291.318 66.9439 289.933 67.8672C288.663 68.7905 287.451 69.7144 286.297 70.6377C283.758 73.0615 281.103 75.9469 278.333 79.2939C275.563 82.5256 273.428 85.1228 271.928 87.085C271.581 87.5466 271.292 87.7773 271.062 87.7773C270.831 87.7772 270.716 87.4887 270.716 86.9121C270.716 85.9887 271.004 85.1224 271.581 84.3145C273.197 82.0062 275.101 79.4671 277.294 76.6973C279.487 73.9272 281.738 71.2726 284.047 68.7334C286.24 66.425 288.49 64.1735 290.799 61.9805C293.107 59.7878 296.05 58.6915 299.628 58.6914ZM518.472 0C521.126 1.99008e-05 523.434 0.57739 525.396 1.73145C527.359 2.77023 528.456 4.67523 528.687 7.44531V9.00293C528.687 10.6187 528.513 12.2348 528.167 13.8506C528.052 14.3122 527.59 14.5429 526.782 14.543C526.436 14.543 526.32 14.4855 526.436 14.3701C526.897 11.3694 526.089 9.23445 524.012 7.96484C522.05 6.69522 519.51 6.05957 516.394 6.05957C510.738 6.05962 505.545 7.09927 500.812 9.17676C496.08 11.2543 491.694 14.0238 487.654 17.4863C481.422 22.9111 475.997 29.837 471.38 38.2627C466.763 46.6882 462.782 55.2869 459.435 64.0586C457.819 68.329 456.203 72.5997 454.587 76.8701C453.086 81.1407 451.643 85.123 450.258 88.8164C455.452 81.8913 460.415 75.9474 465.147 70.9844C469.995 66.0213 474.208 62.5004 477.786 60.4229C480.672 58.807 483.269 57.999 485.577 57.999C487.77 57.9991 488.866 58.9229 488.866 60.7695C488.866 62.3854 488.058 64.4629 486.442 67.002C485.634 68.2716 484.365 70.4073 482.634 73.4082C481.018 76.409 479.286 79.6985 477.439 83.2764C475.708 86.7389 474.208 89.9708 472.938 92.9717C471.669 95.9725 471.034 98.1658 471.034 99.5508C471.034 101.397 471.842 102.32 473.458 102.32C474.381 102.32 475.42 102.032 476.574 101.455C477.844 100.878 478.767 100.358 479.344 99.8965C482.46 97.5881 485.519 94.7602 488.52 91.4131C489.666 90.1338 490.746 88.9132 491.758 87.752C491.712 87.7673 491.669 87.7773 491.627 87.7773C491.396 87.7773 491.28 87.4891 491.28 86.9121C491.28 85.9889 491.569 85.1232 492.146 84.3154C494.338 81.5454 496.762 78.4284 499.417 74.9658C502.187 71.5032 504.669 68.3289 506.862 65.4434C509.055 62.4427 510.44 60.4809 511.018 59.5576C512.287 59.3268 514.134 58.9802 516.558 58.5186C519.096 58.0569 520.828 57.4221 521.751 56.6143C522.097 56.268 522.444 56.0947 522.79 56.0947C523.021 56.0947 523.137 56.3255 523.137 56.7871C523.252 57.1333 523.136 57.5374 522.79 57.999C522.098 58.6915 521.059 60.1926 519.674 62.501C518.404 64.8093 516.962 67.464 515.346 70.4648C513.73 73.4657 512.171 76.351 510.671 79.1211C511.825 77.3898 513.325 75.3698 515.172 73.0615C517.134 70.6378 519.27 68.3296 521.578 66.1367C523.886 63.8284 526.195 61.9233 528.503 60.4229C530.927 58.9225 533.177 58.172 535.255 58.1719C536.755 58.1719 538.026 58.5184 539.064 59.2109C540.103 59.7881 540.911 60.8852 541.488 62.501C541.834 63.3088 542.008 64.232 542.008 65.2705C542.008 67.2327 541.488 69.1376 540.449 70.9844C539.526 72.7154 538.834 74.0425 538.372 74.9658C538.257 75.312 537.853 75.6587 537.16 76.0049C536.468 76.2357 536.179 76.1199 536.294 75.6582C536.409 75.0812 536.467 74.5038 536.467 73.9268C536.582 73.3497 536.641 72.7149 536.641 72.0225C536.641 70.0604 536.237 68.2711 535.429 66.6553C534.736 65.0396 533.408 64.2314 531.446 64.2314C529.6 64.2315 527.349 65.386 524.694 67.6943C522.04 70.0027 519.385 72.6573 516.73 75.6582C513.383 79.5825 510.729 83.3341 508.767 86.9121C506.804 90.3747 505.189 93.7798 503.919 97.127C503.226 98.9736 502.533 100.82 501.841 102.667C501.148 104.398 500.629 105.784 500.283 106.822C498.783 106.938 497.282 107.283 495.781 107.86C494.281 108.553 493.242 108.899 492.665 108.899C492.204 108.899 492.204 108.438 492.665 107.515C493.242 106.476 493.762 105.321 494.224 104.052C494.801 102.782 495.378 101.397 495.955 99.8965C497.109 97.1265 498.379 94.0103 499.764 90.5479C501.149 87.0852 502.476 83.7376 503.746 80.5059C505.016 77.1588 506.112 74.3308 507.035 72.0225C508.074 69.5994 508.766 68.0414 509.112 67.3486C507.497 69.0798 505.535 71.2725 503.227 73.9268C501.034 76.466 498.955 78.9482 496.993 81.3721C495.746 82.9127 494.687 84.2443 493.812 85.3652C494.642 84.3893 495.418 83.4631 496.138 82.584C496.253 82.4686 496.311 82.6412 496.311 83.1025C496.311 83.5642 496.196 84.2573 495.965 85.1807C495.849 85.9885 495.503 86.6808 494.926 87.2578C493.656 88.9891 492.328 90.6634 490.943 92.2793C489.674 93.7796 488.404 95.28 487.135 96.7803C484.942 99.3195 482.287 101.743 479.171 104.052C476.17 106.36 472.765 107.515 468.956 107.515C467.225 107.515 465.667 107.168 464.282 106.476C463.013 105.783 462.377 104.514 462.377 102.667C462.377 101.628 462.609 100.474 463.07 99.2041C464.109 96.5495 465.493 93.3175 467.225 89.5088C469.071 85.7001 470.918 82.0066 472.765 78.4287C474.611 74.7353 476.055 71.7342 477.094 69.4258C477.786 68.0408 478.132 67.0595 478.132 66.4824C478.132 65.4437 477.555 65.213 476.4 65.79C475.246 66.3671 473.977 67.1752 472.592 68.2139C471.207 69.2526 470.168 70.0606 469.476 70.6377C466.475 73.4078 463.3 76.697 459.953 80.5059C456.721 84.1993 453.721 88.1242 450.951 92.2793C448.297 96.319 446.218 100.359 444.718 104.398C444.602 105.091 443.852 105.667 442.468 106.129C441.083 106.591 439.812 106.822 438.658 106.822C436.812 106.822 436.12 106.245 436.581 105.091C438.329 101.138 440.1 96.9094 441.898 92.4062C440.021 94.185 438.057 95.818 436.002 97.2998C431.039 100.878 425.73 103.821 420.074 106.13C416.265 107.63 411.822 108.9 406.743 109.938C401.78 110.977 396.759 111.496 391.681 111.496C385.563 111.496 379.677 110.573 374.021 108.727C368.481 106.995 363.98 104.052 360.518 99.8965C357.055 95.7414 355.323 90.144 355.323 83.1035C355.323 75.6012 356.766 68.2713 359.651 61.1152C362.537 53.9594 366.404 47.3231 371.251 41.2061C376.099 34.9734 381.524 29.6059 387.525 25.1045C392.835 21.0649 398.952 17.7756 405.877 15.2363C412.918 12.6971 419.901 11.4277 426.826 11.4277C429.712 11.4277 432.424 11.6585 434.963 12.1201C437.502 12.4664 440.099 13.2743 442.754 14.5439C445.062 15.5827 446.909 16.9096 448.294 18.5254C449.679 20.0259 450.372 21.7576 450.372 23.7197V24.585C450.372 24.9312 450.314 25.2203 450.198 25.4512C449.737 27.2978 448.64 29.4329 446.909 31.8564C445.293 34.1648 444.024 36.5888 443.101 39.1279C442.985 39.5896 442.35 39.9936 441.196 40.3398C440.042 40.5706 439.58 40.4555 439.811 39.9941C440.734 38.4937 441.427 36.6461 441.889 34.4531C442.466 32.2604 442.754 30.0677 442.754 27.875C442.754 26.2591 442.581 24.7581 442.234 23.373C442.004 21.8727 441.542 20.6032 440.85 19.5645C439.695 17.4869 437.906 16.0443 435.482 15.2363C433.059 14.4284 430.461 14.0244 427.691 14.0244C425.037 14.0244 422.382 14.3126 419.728 14.8896C417.073 15.4667 414.765 16.1015 412.803 16.7939C406.108 19.2178 399.702 23.0268 393.585 28.2207C388.16 32.9529 383.312 38.4353 379.042 44.668C374.887 50.9007 371.598 57.3068 369.174 63.8857C366.75 70.4647 365.538 76.755 365.538 82.7568C365.538 88.874 366.865 93.7218 369.52 97.2998C372.174 100.878 375.638 103.418 379.908 104.918C384.178 106.418 388.795 107.168 393.758 107.168C398.144 107.168 402.473 106.707 406.743 105.783C411.129 104.86 415.111 103.705 418.688 102.32C424.806 100.012 430.289 97.1841 435.137 93.8369C438.365 91.6594 441.445 89.0645 444.381 86.0566C444.492 85.7654 444.606 85.4739 444.718 85.1807C447.603 77.9092 450.835 70.4644 454.413 62.8467C457.068 57.0757 460.011 51.1319 463.243 45.0146C466.59 38.8974 470.284 33.0685 474.323 27.5283C478.363 21.8727 482.807 16.9092 487.654 12.6387C491.925 8.94528 496.599 5.94413 501.678 3.63574C506.872 1.21194 512.47 0 518.472 0ZM567.364 56.0947C567.595 56.0948 567.711 56.3255 567.711 56.7871C567.826 57.1333 567.71 57.5374 567.364 57.999C566.672 58.807 565.46 60.7694 563.729 63.8857C561.997 67.002 560.151 70.4646 558.188 74.2734C556.342 77.9668 554.61 81.3136 552.994 84.3145C551.378 87.4308 549.993 90.4319 548.839 93.3174C547.685 96.2029 547.108 98.2812 547.108 99.5508C547.109 101.166 547.917 101.975 549.532 101.975C551.033 101.974 552.937 101.051 555.245 99.2041C557.439 97.5323 559.632 95.5752 561.826 93.3359C561.848 93.2726 561.868 93.2082 561.891 93.1445C562.699 91.1825 563.68 89.7972 564.834 88.9893C565.263 88.7751 565.59 88.7625 565.819 88.9463C566.778 87.8599 567.677 86.8185 568.521 85.8242C568.443 85.8547 568.369 85.873 568.296 85.873C568.065 85.8728 567.95 85.6421 567.95 85.1807C567.95 84.142 568.412 83.0457 569.335 81.8916C570.258 80.8528 571.297 79.5825 572.451 78.082C573.605 76.4662 574.529 75.1968 575.222 74.2734C577.184 71.388 578.626 69.1373 579.55 67.5215C580.589 65.7902 581.685 64.2317 582.839 62.8467C584.108 61.3462 585.667 60.1343 587.514 59.2109C589.476 58.2876 591.496 57.8262 593.573 57.8262C595.997 57.8262 598.19 58.2302 600.152 59.0381C602.23 59.7306 603.326 61.5774 603.441 64.5781C603.441 65.9631 603.153 67.4059 602.576 68.9062C602.115 70.2913 601.595 71.619 601.018 72.8887C600.671 73.5809 600.152 74.1001 599.46 74.4463C598.883 74.6771 598.594 74.5621 598.594 74.1006C598.594 73.6389 598.652 73.1191 598.768 72.542C598.883 71.9652 598.94 71.4459 598.94 70.9844C598.94 69.0222 598.594 67.2905 597.901 65.79C597.324 64.1742 596.459 63.0196 595.305 62.3271C594.151 61.5193 592.938 61.1153 591.669 61.1152C589.822 61.1152 588.033 61.8658 586.302 63.3662C584.57 64.7512 583.705 66.598 583.705 68.9062V69.7725C583.705 70.1185 583.763 70.4069 583.878 70.6377C584.34 72.4844 585.725 74.5618 588.033 76.8701C590.342 79.1785 592.131 81.1984 593.4 82.9297C595.593 85.9306 596.689 88.9901 596.689 92.1064C596.689 95.2226 595.767 98.1082 593.92 100.763C592.189 103.302 589.822 105.322 586.821 106.822C583.936 108.438 580.761 109.246 577.299 109.246C575.221 109.246 573.028 108.957 570.72 108.38C568.411 107.803 566.334 106.88 564.487 105.61C562.756 104.225 561.602 102.379 561.024 100.07C560.909 99.7241 560.852 99.2042 560.852 98.5117C560.852 98.3268 560.856 98.1396 560.865 97.9502C558.53 100.203 556.023 102.18 553.341 103.879C549.878 105.956 546.127 106.995 542.087 106.995C540.933 106.995 539.951 106.764 539.144 106.303C538.451 105.841 538.105 104.975 538.105 103.705C538.106 102.089 538.51 100.185 539.317 97.9922C540.241 95.7992 541.222 93.606 542.261 91.4131C543.415 89.2202 544.28 87.4309 544.857 86.0459C545.665 84.4301 546.647 82.3526 547.801 79.8135C549.07 77.159 550.224 74.6774 551.263 72.3691C552.417 69.9453 553.225 68.271 553.687 67.3477C552.071 69.0789 550.109 71.2722 547.801 73.9268C545.608 76.466 543.53 78.9482 541.567 81.3721C539.605 83.7957 538.105 85.7 537.066 87.085C536.72 87.5463 536.432 87.7771 536.201 87.7773C535.97 87.7773 535.855 87.489 535.854 86.9121C535.854 85.9887 536.143 85.1224 536.72 84.3145C538.913 81.5444 541.337 78.4283 543.991 74.9658C546.761 71.5032 549.244 68.3289 551.437 65.4434C553.629 62.4427 555.015 60.481 555.592 59.5576C556.861 59.3268 558.708 58.9802 561.132 58.5186C563.671 58.0569 565.402 57.4221 566.325 56.6143C566.671 56.268 567.018 56.0947 567.364 56.0947ZM649.048 28.5674C649.74 28.5674 649.74 29.0288 649.048 29.9521C648.24 30.8755 646.855 32.8372 644.893 35.8379C642.93 38.7234 640.737 42.2443 638.313 46.3994C635.89 50.439 633.582 54.7096 631.389 59.2109H645.412C646.682 59.2109 647.316 59.3842 647.316 59.7305C647.316 60.1921 646.451 60.6536 644.72 61.1152C642.758 61.6923 640.68 62.0389 638.487 62.1543C636.41 62.2697 634.447 62.5004 632.601 62.8467C630.869 63.1929 629.6 63.9435 628.792 65.0977C628.099 65.9056 627.118 67.6365 625.849 70.291C624.579 72.9456 623.194 76.0044 621.693 79.4668C620.308 82.8139 619.096 86.2191 618.058 89.6816C617.019 93.0287 616.384 95.8567 616.153 98.165V98.8574C616.153 99.7807 616.442 100.531 617.019 101.108C617.596 101.686 618.173 101.975 618.75 101.975C620.25 101.975 622.155 101.051 624.463 99.2041C626.887 97.3574 629.369 95.1642 631.908 92.625C633.555 90.9036 635.055 89.2783 636.41 87.751C636.364 87.7666 636.321 87.7773 636.278 87.7773C636.047 87.7773 635.932 87.4891 635.932 86.9121C635.932 85.9889 636.22 85.1232 636.797 84.3154C638.99 81.5454 641.414 78.4284 644.068 74.9658C646.838 71.5032 649.321 68.3289 651.514 65.4434C653.706 62.4427 655.092 60.4809 655.669 59.5576C656.939 59.3268 658.785 58.9802 661.209 58.5186C663.748 58.0569 665.479 57.4221 666.402 56.6143C666.749 56.268 667.095 56.0947 667.441 56.0947C667.672 56.0948 667.788 56.3256 667.788 56.7871C667.904 57.1333 667.788 57.5374 667.441 57.999C666.749 58.807 665.537 60.712 663.806 63.7129C662.19 66.5983 660.401 69.8303 658.438 73.4082C656.592 76.9861 654.861 80.2181 653.245 83.1035C655.092 80.9106 656.88 78.8322 658.611 76.8701C660.458 74.908 661.728 73.5228 662.421 72.7148C663.806 71.3299 665.71 69.5988 668.134 67.5215C670.558 65.4439 673.097 63.5389 675.752 61.8076C678.406 60.0765 680.715 59.0961 682.677 58.8652C683.138 58.7498 683.542 58.6914 683.889 58.6914H684.928C687.12 58.6915 688.217 59.4996 688.217 61.1152C688.217 61.8077 688.044 62.6157 687.697 63.5391C687.351 64.4624 686.89 65.3862 686.312 66.3096C685.62 67.6946 684.465 69.8879 682.85 72.8887C681.234 75.774 679.791 78.4288 678.521 80.8525L686.659 72.7148C688.044 71.3299 689.949 69.5988 692.372 67.5215C694.796 65.4439 697.336 63.5389 699.99 61.8076C702.645 60.0765 704.953 59.0961 706.915 58.8652C707.377 58.7498 707.781 58.6914 708.127 58.6914H709.166C711.705 58.6915 712.975 59.6152 712.975 61.4619C712.975 62.8469 712.224 64.6936 710.724 67.002C709.916 68.2716 708.646 70.4074 706.915 73.4082C705.184 76.409 703.395 79.6985 701.548 83.2764C699.817 86.7389 698.316 89.9708 697.047 92.9717C695.777 95.9726 695.143 98.1658 695.143 99.5508C695.143 101.166 695.951 101.975 697.566 101.975C699.067 101.974 700.971 101.108 703.279 99.377C705.703 97.5303 708.127 95.3379 710.551 92.7988C711.423 91.9264 712.253 91.0658 713.044 90.2207C713.385 89.4114 713.749 88.5965 714.139 87.7773C716.447 82.9299 719.275 78.371 722.622 74.1006C725.969 69.83 729.374 66.3666 732.837 63.7119C736.761 60.711 741.09 59.2109 745.822 59.2109H765.731C766.308 59.2109 766.598 59.4417 766.598 59.9033C766.598 60.8267 766.078 61.2881 765.039 61.2881C763.885 61.2882 762.731 62.0389 761.577 63.5391C760.423 64.9241 759.557 66.0786 758.979 67.002C758.172 68.2716 756.902 70.4066 755.171 73.4072C753.44 76.4081 751.65 79.6983 749.804 83.2764C748.072 86.7388 746.572 89.9708 745.303 92.9717C744.033 95.9722 743.399 98.1648 743.398 99.5498C743.398 101.166 744.206 101.974 745.822 101.974C747.553 101.974 749.515 101.166 751.708 99.5498C753.81 98.0013 755.909 96.1328 758.011 93.9482C758.093 93.6837 758.183 93.4157 758.278 93.1445C759.086 91.1825 760.068 89.7972 761.222 88.9893C761.683 88.7588 762.029 88.7588 762.26 88.9893C762.319 89.0286 762.368 89.0701 762.41 89.1094C763.144 88.2536 763.847 87.4059 764.52 86.5654C764.869 86.134 765.207 85.7198 765.53 85.3213C765.217 85.6883 764.936 85.873 764.684 85.873C764.453 85.8728 764.338 85.6421 764.338 85.1807C764.338 84.142 764.799 83.0457 765.723 81.8916C766.646 80.8528 767.685 79.5825 768.839 78.082C769.993 76.4662 770.917 75.1968 771.609 74.2734C773.571 71.388 775.014 69.1373 775.938 67.5215C776.976 65.7902 778.072 64.2317 779.227 62.8467C780.496 61.3462 782.055 60.1343 783.901 59.2109C785.863 58.2876 787.883 57.8262 789.961 57.8262C790.251 57.8262 790.538 57.8312 790.821 57.8428L791.331 62.0898C790.286 61.4408 789.195 61.1153 788.057 61.1152C786.21 61.1152 784.421 61.8658 782.689 63.3662C780.958 64.7512 780.093 66.598 780.093 68.9062V69.7725C780.093 70.1185 780.15 70.4069 780.266 70.6377C780.727 72.4844 782.113 74.5618 784.421 76.8701C786.729 79.1785 788.518 81.1984 789.788 82.9297C791.981 85.9306 793.077 88.9901 793.077 92.1064C793.077 95.2226 792.154 98.1082 790.308 100.763C788.576 103.302 786.21 105.322 783.209 106.822C780.323 108.438 777.149 109.246 773.687 109.246C771.609 109.246 769.416 108.957 767.107 108.38C764.799 107.803 762.722 106.88 760.875 105.61C759.144 104.225 757.989 102.379 757.412 100.07C757.297 99.7241 757.239 99.2042 757.239 98.5117C757.239 98.2711 757.247 98.0266 757.263 97.7783C754.785 100.103 752.126 102.137 749.284 103.879C745.822 105.956 742.244 106.995 738.551 106.995C737.397 106.995 736.415 106.764 735.607 106.303C734.799 105.841 734.396 104.975 734.396 103.705C734.396 102.089 734.8 100.242 735.607 98.165C736.415 96.0876 737.338 94.0675 738.377 92.1055C739.416 90.0279 740.34 88.3546 741.147 87.085C737.108 91.3555 732.895 95.3952 728.509 99.2041C726.316 101.051 723.892 102.782 721.237 104.397C718.583 106.013 715.755 106.821 712.754 106.821C711.6 106.821 710.792 106.476 710.33 105.783C709.868 104.975 709.638 104.051 709.638 103.013C709.638 102.436 709.695 102.032 709.811 101.801C710.065 99.8178 710.487 97.8012 711.077 95.751C708.351 98.7879 705.348 101.383 702.067 103.532C698.72 105.61 695.142 106.822 691.333 107.168C690.179 107.283 689.025 107.053 687.871 106.476C686.717 105.898 686.14 104.975 686.14 103.705C686.14 102.089 686.544 100.185 687.352 97.9922C688.275 95.7992 689.256 93.606 690.295 91.4131C691.449 89.2202 692.315 87.4309 692.892 86.0459C694.969 82.0065 696.873 78.1979 698.604 74.6201C700.336 71.0422 701.548 68.5024 702.24 67.002C702.586 66.3094 702.76 65.7322 702.76 65.2705C702.76 64.4627 702.125 64.4052 700.855 65.0977C699.586 65.7902 698.027 66.8288 696.181 68.2139C694.449 69.5989 692.833 70.9842 691.333 72.3691C689.833 73.6384 688.852 74.5041 688.391 74.9658C686.429 76.9279 684.062 79.5826 681.292 82.9297C678.637 86.2769 676.156 89.7978 673.848 93.4912C671.539 97.0691 669.923 100.416 669 103.532C667.846 104.571 666.749 105.091 665.71 105.091C664.902 105.091 664.21 104.802 663.633 104.225C663.171 103.648 662.94 102.955 662.94 102.147C662.94 99.8391 663.633 97.1269 665.018 94.0107C666.518 90.779 667.73 88.1235 668.653 86.0459C670.731 82.0065 672.635 78.1979 674.366 74.6201C676.097 71.0422 677.309 68.5024 678.002 67.002C678.348 66.3094 678.521 65.7322 678.521 65.2705C678.521 64.4627 677.887 64.4052 676.617 65.0977C675.348 65.7902 673.789 66.8289 671.942 68.2139C670.211 69.5988 668.595 70.9842 667.095 72.3691C665.595 73.6384 664.614 74.5041 664.152 74.9658C661.382 77.8513 658.785 80.795 656.361 83.7959C654.053 86.7968 652.09 90.0286 650.475 93.4912C649.551 95.5687 648.57 97.8769 647.531 100.416C646.492 102.955 645.627 105.091 644.935 106.822C643.434 106.938 641.933 107.342 640.433 108.034C638.932 108.727 637.893 109.072 637.316 109.072C636.855 109.072 636.855 108.553 637.316 107.515C637.893 106.476 638.413 105.321 638.875 104.052C639.452 102.782 640.029 101.397 640.606 99.8965C641.761 97.1265 643.03 94.0103 644.415 90.5479C645.8 87.0852 647.128 83.7376 648.397 80.5059C649.667 77.1588 650.763 74.3308 651.687 72.0225C652.725 69.5993 653.417 68.0414 653.764 67.3486C652.148 69.0798 650.186 71.2725 647.878 73.9268C645.735 76.4082 643.702 78.8349 641.779 81.2061C642.008 81.6641 642.123 82.0077 642.123 82.2373C642.123 82.9298 641.891 83.6804 641.43 84.4883C641.083 85.2961 640.679 85.9884 640.218 86.5654C638.025 89.4509 635.37 92.5095 632.254 95.7412C629.138 98.8574 625.791 101.512 622.213 103.705C618.75 105.898 615.172 106.995 611.479 106.995C610.324 106.995 609.343 106.764 608.535 106.303C607.727 105.841 607.323 104.975 607.323 103.705C607.323 102.089 607.727 100.185 608.535 97.9922C609.458 95.7992 610.44 93.6061 611.479 91.4131C612.517 89.2201 613.383 87.4309 614.075 86.0459C614.652 85.0071 615.403 83.3912 616.326 81.1982C617.365 78.89 618.404 76.5242 619.442 74.1006C620.597 71.5613 621.52 69.4256 622.213 67.6943C623.016 65.9743 623.42 65.1088 623.425 65.0977C622.386 66.2519 621.001 67.8678 619.27 69.9453C617.654 72.0229 615.864 74.216 613.902 76.5244C612.056 78.7173 610.324 80.7948 608.708 82.7568C607.208 84.7188 606.111 86.1617 605.419 87.085C605.073 87.5463 604.784 87.7771 604.554 87.7773C604.323 87.7773 604.207 87.489 604.207 86.9121C604.207 85.9887 604.495 85.1224 605.072 84.3145C606.457 82.5832 608.132 80.5058 610.094 78.082C612.056 75.543 614.018 73.0039 615.979 70.4648C618.057 67.9256 619.846 65.6741 621.347 63.7119C620.423 63.7119 619.211 63.7703 617.711 63.8857C616.326 64.0012 615.056 64.1744 613.902 64.4053C612.749 64.5207 612.114 64.5781 611.998 64.5781C611.421 64.5781 611.479 64.1165 612.171 63.1934C612.863 62.27 613.787 61.3462 614.941 60.4229C616.096 59.4996 616.961 59.0381 617.538 59.0381C617.654 59.0381 618.577 59.0955 620.309 59.2109H624.117C626.426 56.0946 628.676 52.5162 630.869 48.4766C633.177 44.4369 635.428 39.9931 637.621 35.1455C638.544 35.0301 640.103 34.3954 642.296 33.2412C644.604 31.9716 646.393 30.7022 647.663 29.4326C648.24 28.8556 648.702 28.5674 649.048 28.5674ZM156.444 9.34961C160.253 6.46411 164.178 5.19378 168.218 5.54004C168.333 5.54009 168.391 5.5985 168.391 5.71387H168.563C168.563 6.06007 168.333 6.4642 167.871 6.92578C167.41 7.38723 166.89 7.67557 166.313 7.79102C163.313 7.6756 160.6 8.83008 158.176 11.2539C155.752 13.6777 153.501 16.5631 151.424 19.9102C150.385 21.6415 148.827 24.4118 146.749 28.2207C144.671 31.9141 142.306 36.3005 139.651 41.3789C137.112 46.4573 134.515 51.824 131.86 57.4795C129.206 63.1351 126.724 68.6758 124.416 74.1006C122.223 79.5252 120.434 84.488 119.049 88.9893C117.664 93.3752 116.971 96.9536 116.971 99.7236C116.971 102.955 118.068 104.571 120.261 104.571C121.184 104.571 122.165 104.341 123.204 103.879C124.705 103.302 126.378 102.435 128.225 101.281C130.071 100.127 131.745 98.8001 133.245 97.2998C135.925 94.7231 138.327 92.0984 140.454 89.4297C140.688 88.8275 140.943 88.2187 141.223 87.6045C143.069 83.7956 144.801 80.5638 146.417 77.9092C148.264 75.1392 150.745 72.2538 153.861 69.2529C156.978 66.252 160.383 63.7123 164.076 61.6348C167.77 59.5572 171.348 58.5186 174.811 58.5186C177.811 58.5186 179.889 59.2691 181.043 60.7695C182.197 62.1545 182.774 63.828 182.774 65.79C182.774 69.3681 181.677 72.3117 179.484 74.6201C177.407 76.9282 174.81 78.8327 171.694 80.333C168.578 81.718 165.577 82.8726 162.691 83.7959C160.96 84.2576 158.94 84.719 156.632 85.1807C154.324 85.6423 152.13 85.873 150.053 85.873C149.245 87.9506 148.61 89.9705 148.148 91.9326C147.687 93.8948 147.456 95.6839 147.456 97.2998C147.456 99.2619 147.917 100.878 148.841 102.147C149.88 103.417 151.553 104.052 153.861 104.052C154.785 104.052 155.882 103.936 157.151 103.705C158.421 103.474 159.806 103.129 161.306 102.667C164.768 101.513 168.173 99.6661 171.521 97.127C174.868 94.5877 177.926 91.8747 180.696 88.9893C181.097 88.5723 181.484 88.1645 181.858 87.7676C181.664 87.7236 181.566 87.4411 181.566 86.9121C181.566 85.9889 181.855 85.1232 182.432 84.3154C184.625 81.5454 187.049 78.4284 189.703 74.9658C192.473 71.5032 194.955 68.3289 197.148 65.4434C199.341 62.4427 200.727 60.4809 201.304 59.5576C202.573 59.3268 204.42 58.9802 206.844 58.5186C209.383 58.0569 211.114 57.4221 212.037 56.6143C212.383 56.268 212.73 56.0947 213.076 56.0947C213.307 56.0948 213.423 56.3256 213.423 56.7871C213.538 57.1333 213.422 57.5374 213.076 57.999C212.384 58.6915 211.345 60.1926 209.96 62.501C208.69 64.8093 207.248 67.464 205.632 70.4648C204.016 73.4657 202.457 76.351 200.957 79.1211C202.111 77.3898 203.611 75.3698 205.458 73.0615C207.42 70.6378 209.556 68.3296 211.864 66.1367C214.173 63.8284 216.481 61.9233 218.789 60.4229C221.213 58.9224 223.464 58.1719 225.542 58.1719C227.042 58.172 228.312 58.5185 229.351 59.2109C230.389 59.7881 231.197 60.8852 231.774 62.501C232.121 63.3088 232.294 64.232 232.294 65.2705C232.294 67.2327 231.774 69.1376 230.735 70.9844C229.812 72.7154 229.12 74.0425 228.658 74.9658C228.543 75.312 228.139 75.6587 227.446 76.0049C226.754 76.2357 226.465 76.1199 226.58 75.6582C226.695 75.0812 226.754 74.5038 226.754 73.9268C226.869 73.3498 226.927 72.7148 226.927 72.0225C226.927 70.0604 226.523 68.2711 225.715 66.6553C225.022 65.0396 223.694 64.2314 221.732 64.2314C219.886 64.2315 217.635 65.386 214.98 67.6943C212.326 70.0027 209.671 72.6573 207.017 75.6582C203.669 79.5825 201.015 83.3341 199.053 86.9121C197.091 90.3747 195.475 93.7798 194.205 97.127C193.513 98.9736 192.819 100.82 192.127 102.667C191.434 104.398 190.916 105.784 190.569 106.822C189.069 106.938 187.568 107.283 186.067 107.86C184.567 108.553 183.528 108.899 182.951 108.899C182.49 108.899 182.49 108.438 182.951 107.515C183.528 106.476 184.048 105.321 184.51 104.052C185.087 102.782 185.664 101.397 186.241 99.8965C187.395 97.1265 188.665 94.0103 190.05 90.5479C191.435 87.0852 192.763 83.7376 194.032 80.5059C195.302 77.1588 196.398 74.3308 197.321 72.0225C198.36 69.5994 199.052 68.0414 199.398 67.3486C197.783 69.0798 195.821 71.2725 193.513 73.9268C191.32 76.466 189.241 78.9482 187.279 81.3721C186.128 82.7945 185.136 84.0388 184.303 85.1035C185.488 83.7709 186.48 82.5854 187.275 81.5449C187.622 81.8912 187.795 82.2952 187.795 82.7568C187.795 83.3339 187.391 84.2578 186.583 85.5273C184.275 88.759 181.273 92.1059 177.58 95.5684C173.887 99.0309 169.789 101.975 165.288 104.398C160.787 106.707 156.112 107.86 151.265 107.86C146.533 107.86 143.243 106.937 141.396 105.091C139.55 103.244 138.626 100.993 138.626 98.3389C138.626 97.0812 138.748 95.7906 138.992 94.4678C137.412 96.2537 135.67 98.064 133.765 99.8965C130.879 102.782 127.763 104.975 124.416 106.476C123.377 106.937 122.28 107.284 121.126 107.515C119.972 107.861 118.817 108.033 117.663 108.033C115.124 108.033 112.816 107.284 110.738 105.783C108.776 104.167 107.795 101.513 107.795 97.8193C107.795 94.2414 108.603 90.2014 110.219 85.7002C111.95 81.0834 113.855 76.6396 115.933 72.3691C118.126 67.9832 119.914 64.289 121.299 61.2881C122.799 58.1718 124.704 54.1903 127.013 49.3428C129.321 44.4951 131.976 39.589 134.977 34.626L85.1152 87.2578C84.9998 88.1812 84.5958 89.105 83.9033 90.0283C83.2108 90.8362 82.1137 91.5284 80.6133 92.1055C79.8054 92.4518 78.7091 93.3757 77.3242 94.876C75.9392 96.3764 75.0154 97.4151 74.5537 97.9922C74.5536 98.1075 74.381 98.165 74.0352 98.165C73.689 98.165 73.3423 98.0501 72.9961 97.8193C72.6501 97.5887 72.5344 97.4152 72.6494 97.2998C75.6503 93.491 77.2088 88.2392 77.3242 81.5449L77.4971 77.3896C77.7279 72.5421 77.9012 67.4636 78.0166 62.1543C78.132 56.7296 78.1895 51.7086 78.1895 47.0918C78.3049 42.3596 78.3633 38.5505 78.3633 35.665V31.1641C78.3633 28.394 78.7673 25.9701 79.5752 23.8926C80.3831 21.815 81.3644 20.0259 82.5186 18.5254C80.5564 20.0259 78.6514 21.815 76.8047 23.8926C74.958 25.9701 73.3995 28.2782 72.1299 30.8174C70.3986 34.3954 68.4371 39.0124 66.2441 44.668C64.0512 50.3236 61.5115 56.3257 58.626 62.6738C55.856 69.0217 52.7398 75.2541 49.2773 81.3711C45.9302 87.3729 42.1786 92.5672 38.0234 96.9531C35.138 100.069 31.4447 102.724 26.9434 104.917C22.5574 107.11 18.4018 108.207 14.4775 108.207C10.8998 108.207 7.49521 107.226 4.26367 105.264C2.63764 104.218 1.21698 102.909 0 101.338L0.568359 96.6064C0.806093 96.9081 1.05634 97.1972 1.32031 97.4727C4.09037 100.243 7.49551 101.628 11.5352 101.628C15.5747 101.628 19.4415 100.473 23.1348 98.165C26.9434 95.8567 30.4637 92.9138 33.6953 89.3359C39.0046 83.565 43.5058 77.7359 47.1992 71.8496C50.8926 65.8479 54.2403 59.7306 57.2412 53.498C60.3575 47.15 63.4735 40.5705 66.5898 33.7607C68.552 29.6057 70.9759 25.9698 73.8613 22.8535C76.8623 19.7372 80.4406 17.6015 84.5957 16.4473L84.7686 16.2744H75.2471C71.2074 16.2744 66.936 16.4477 62.4346 16.7939C57.9333 17.1402 53.8359 17.8908 50.1426 19.0449C46.5647 20.1991 43.9674 21.93 42.3516 24.2383C41.3128 25.7387 40.7939 27.4705 40.7939 29.4326C40.794 31.3946 41.3129 33.2989 42.3516 35.1455C43.3903 36.9922 44.7181 38.32 46.334 39.1279C46.5647 39.3587 46.6797 39.5321 46.6797 39.6475C46.6794 39.8783 46.3913 40.1666 45.8145 40.5127C45.3528 40.7435 44.833 40.801 44.2559 40.6855C43.3326 40.1085 42.1786 39.1853 40.7939 37.916C39.4089 36.531 38.1386 35.0884 36.9844 33.5879C35.9456 32.0874 35.2535 30.8171 34.9072 29.7783C34.4457 28.3935 34.2149 27.0088 34.2148 25.624C34.2148 22.8539 35.1961 20.6024 37.1582 18.8711C39.2357 17.1399 41.8905 15.813 45.1221 14.8896C48.3538 13.9663 51.8164 13.3316 55.5098 12.9854C59.3186 12.5237 62.9544 12.293 66.417 12.293C69.995 12.1776 73.0536 12.1191 75.5928 12.1191H94.291C94.5218 12.1191 94.6377 12.1776 94.6377 12.293C94.6374 12.6392 94.2332 13.1585 93.4258 13.8506C92.7333 14.4277 92.2709 14.7168 92.04 14.7168C89.1548 15.2939 87.0198 16.8517 85.6348 19.3906C84.2497 21.8144 83.6151 25.7393 83.7305 31.1641V34.9727C83.8459 37.5118 83.9608 40.8012 84.0762 44.8408C84.1916 48.8805 84.3074 53.2094 84.4229 57.8262C84.5383 62.4429 84.6531 66.8868 84.7686 71.1572C84.884 75.4275 84.9998 79.0052 85.1152 81.8906V82.9297L145.191 19.5645C149 15.5249 152.751 12.1196 156.444 9.34961ZM257.65 56.0947C257.881 56.0948 257.997 56.3256 257.997 56.7871C258.112 57.1333 257.997 57.5374 257.65 57.999C256.958 58.6915 255.919 60.1926 254.534 62.501C253.265 64.8093 251.822 67.464 250.206 70.4648C248.59 73.4657 247.032 76.351 245.531 79.1211C246.685 77.3898 248.186 75.3698 250.032 73.0615C251.994 70.6378 254.13 68.3296 256.438 66.1367C258.747 63.8284 261.055 61.9233 263.363 60.4229C265.787 58.9224 268.039 58.1719 270.116 58.1719C271.616 58.172 272.886 58.5185 273.925 59.2109C274.964 59.7881 275.772 60.8852 276.349 62.501C276.695 63.3088 276.868 64.232 276.868 65.2705C276.868 67.2327 276.348 69.1376 275.31 70.9844C274.386 72.7154 273.694 74.0425 273.232 74.9658C273.117 75.312 272.713 75.6587 272.021 76.0049C271.328 76.2357 271.039 76.1199 271.154 75.6582C271.27 75.0812 271.328 74.5038 271.328 73.9268C271.443 73.3498 271.501 72.7148 271.501 72.0225C271.501 70.0604 271.097 68.2711 270.289 66.6553C269.597 65.0396 268.269 64.2314 266.307 64.2314C264.46 64.2315 262.209 65.386 259.555 67.6943C256.9 70.0027 254.245 72.6573 251.591 75.6582C248.244 79.5825 245.589 83.3341 243.627 86.9121C241.665 90.3747 240.049 93.7798 238.779 97.127C238.087 98.9736 237.394 100.82 236.701 102.667C236.009 104.398 235.49 105.784 235.144 106.822C233.643 106.938 232.142 107.283 230.642 107.86C229.141 108.553 228.102 108.899 227.525 108.899C227.064 108.899 227.064 108.438 227.525 107.515C228.102 106.476 228.622 105.321 229.084 104.052C229.661 102.782 230.238 101.397 230.815 99.8965C231.97 97.1265 233.239 94.0103 234.624 90.5479C236.009 87.0852 237.337 83.7376 238.606 80.5059C239.876 77.1588 240.972 74.3308 241.896 72.0225C242.934 69.5994 243.626 68.0414 243.973 67.3486C242.357 69.0798 240.395 71.2725 238.087 73.9268C235.894 76.466 233.816 78.9482 231.854 81.3721C229.892 83.7957 228.391 85.7 227.353 87.085C227.006 87.5464 226.718 87.7771 226.487 87.7773C226.256 87.7773 226.141 87.4891 226.141 86.9121C226.141 85.9889 226.429 85.1232 227.006 84.3154C229.199 81.5454 231.623 78.4284 234.277 74.9658C237.047 71.5032 239.53 68.3289 241.723 65.4434C243.915 62.4427 245.301 60.4809 245.878 59.5576C247.148 59.3268 248.994 58.9802 251.418 58.5186C253.957 58.0569 255.688 57.4221 256.611 56.6143C256.958 56.268 257.304 56.0947 257.65 56.0947ZM578.165 73.7539C576.665 75.9469 575.106 78.0252 573.49 79.9873C572.966 80.6324 572.461 81.2481 571.979 81.8369C572.347 81.4304 572.597 81.1594 572.731 81.0254C572.962 81.2562 573.077 81.6603 573.077 82.2373C572.962 83.0452 572.674 83.8532 572.212 84.6611C571.75 85.3536 571.289 85.9884 570.827 86.5654C568.994 88.8348 567.029 91.1699 564.932 93.5713C564.809 96.1871 565.467 98.5261 566.911 100.589C567.604 101.512 568.412 102.379 569.335 103.187C570.374 103.994 571.355 104.687 572.278 105.264C573.086 105.725 574.068 106.072 575.222 106.303C576.376 106.418 577.53 106.476 578.684 106.476C580.53 106.476 582.32 106.245 584.051 105.783C585.782 105.322 587.052 104.571 587.86 103.532C589.361 101.686 590.11 99.608 590.11 97.2998C590.11 95.5685 589.649 93.7219 588.726 91.7598C587.802 89.7977 586.359 87.7202 584.397 85.5273C583.128 84.1423 581.916 82.6413 580.762 81.0254C579.608 79.4096 578.857 77.6786 578.511 75.832C578.395 75.4858 578.28 75.1392 578.165 74.793V73.7539ZM774.553 73.7539C773.052 75.9469 771.494 78.0252 769.878 79.9873C768.378 81.8339 767.05 83.45 765.896 84.835C765.805 84.9708 765.715 85.092 765.629 85.2012C767.079 83.4164 768.266 81.966 769.194 80.8525C769.887 81.5451 769.829 82.5263 769.021 83.7959C768.329 84.9499 767.694 85.873 767.117 86.5654C765.381 88.8222 763.449 91.144 761.321 93.5312C761.19 96.1632 761.848 98.5156 763.299 100.589C763.991 101.512 764.799 102.379 765.723 103.187C766.761 103.994 767.743 104.687 768.666 105.264C769.474 105.725 770.455 106.072 771.609 106.303C772.763 106.418 773.917 106.476 775.071 106.476C776.918 106.476 778.707 106.245 780.438 105.783C782.17 105.322 783.44 104.571 784.248 103.532C785.748 101.686 786.498 99.608 786.498 97.2998C786.498 95.5685 786.037 93.7219 785.113 91.7598C784.19 89.7977 782.747 87.7202 780.785 85.5273C779.516 84.1423 778.304 82.6413 777.149 81.0254C775.995 79.4096 775.245 77.6786 774.898 75.832C774.783 75.4858 774.668 75.1392 774.553 74.793V73.7539ZM746.688 61.4619C744.841 61.4619 742.821 62.154 740.628 63.5391C738.551 64.8086 736.877 66.0781 735.607 67.3477C734.222 68.6172 732.549 70.6374 730.587 73.4072C728.74 76.0619 726.893 79.0055 725.046 82.2373C723.199 85.4689 721.642 88.5852 720.372 91.5859C719.103 94.5867 718.468 97.0107 718.468 98.8574C718.468 100.242 718.929 100.936 719.853 100.936C721.238 100.935 723.142 99.9541 725.565 97.9922C728.105 95.9146 730.818 93.3749 733.703 90.374C736.589 87.2578 739.301 84.0258 741.84 80.6787C744.379 77.2163 746.456 74.1001 748.072 71.3301C749.804 68.4446 750.67 66.2514 750.67 64.751C750.67 63.4816 750.266 62.616 749.458 62.1543C748.766 61.6926 747.842 61.4619 746.688 61.4619ZM641.645 81.3721C640.33 82.9958 639.224 84.3874 638.324 85.5449C638.378 85.4808 638.434 85.4173 638.487 85.3535C639.295 84.4303 639.987 83.5647 640.564 82.7568C641.22 81.9926 641.614 81.4852 641.753 81.2373C641.717 81.282 641.681 81.3274 641.645 81.3721ZM172.04 61.4619C168.693 61.4619 165.692 62.7313 163.037 65.2705C160.383 67.6943 158.074 70.5222 156.112 73.7539C154.15 76.9856 152.592 79.871 151.438 82.4102C152.938 82.5256 154.611 82.5256 156.458 82.4102C158.42 82.1793 160.325 81.7753 162.172 81.1982C166.904 79.8132 170.309 77.6209 172.387 74.6201C174.58 71.5038 175.676 68.7334 175.676 66.3096C175.676 64.9246 175.388 63.77 174.811 62.8467C174.233 61.9233 173.31 61.4619 172.04 61.4619ZM574.116 30.9912C575.847 30.9912 577.059 31.5101 577.752 32.5488C578.214 33.1259 578.444 33.8764 578.444 34.7998C578.444 36.6463 577.521 38.1467 575.675 39.3008C574.636 39.9933 573.482 40.3398 572.212 40.3398C570.596 40.3398 569.442 39.82 568.749 38.7812C568.288 38.2043 568.057 37.4543 568.057 36.5312C568.057 34.6846 568.922 33.1835 570.653 32.0293C571.923 31.3368 573.077 30.9912 574.116 30.9912Z" fill="#6B1A1A"/>
</svg>
