<svg width="200" height="200" viewBox="0 0 200 200" fill="none" xmlns="http://www.w3.org/2000/svg">
<path d="M116.633 67.5954C118.452 66.2219 118.813 63.6338 117.44 61.8149L116.206 60.1816L108.665 65.8762C106.846 67.2497 106.485 69.8378 107.859 71.6568L109.092 73.29L116.633 67.5954Z" fill="#FF3D3D"/>
<path d="M115.415 76.319C117.234 74.9455 117.596 72.3575 116.222 70.5385L114.989 68.9052L107.447 74.5998C105.628 75.9734 105.267 78.5614 106.641 80.3804L107.874 82.0137L115.415 76.319Z" fill="#EAEBEA"/>
<path d="M114.2 85.0407C116.019 83.6672 116.38 81.0791 115.006 79.2602L113.773 77.6269L106.231 83.3215C104.412 84.6951 104.051 87.2831 105.425 89.1021L106.658 90.7353L114.2 85.0407Z" fill="#FF3D3D"/>
<path d="M112.983 93.7644C114.802 92.3908 115.163 89.8028 113.789 87.9838L112.556 86.3505L105.015 92.0451C103.196 93.4187 102.835 96.0067 104.208 97.8257L105.441 99.459L112.983 93.7644Z" fill="#EAEBEA"/>
<path d="M110.831 102.468C112.692 101.152 113.133 98.5764 111.817 96.7154L110.635 95.0445L102.92 100.501C101.059 101.817 100.617 104.393 101.934 106.254L103.115 107.925L110.831 102.468Z" fill="#FF3D3D"/>
<path d="M115.34 9.99731L120.198 25.1472L130.667 17.0977L123.247 27.3826L137.773 26.1894L123.822 31.1187L131.929 37.7379L122.768 35.4616L123.679 50.9143L117.404 36.8766L106.854 47.2624L113.998 32.6198L99.2805 35.8018L113.434 27.6848L104.622 19.6808L116.462 25.722L115.34 9.99731Z" fill="#BDFF17"/>
<path d="M118.077 51.8226C118.039 52.0936 118.111 52.3685 118.276 52.5869L118.657 53.0919C120.03 54.9109 119.669 57.4993 117.85 58.8728L110.31 64.5677L109.076 62.9336C107.702 61.1148 108.063 58.5272 109.882 57.1537L110.388 56.7715C110.607 56.6066 110.75 56.3617 110.788 56.0907L112.236 45.7125C112.315 45.1482 112.836 44.7545 113.401 44.8332L117.922 45.4641C118.487 45.5429 118.88 46.0642 118.802 46.6286L118.077 51.8226Z" fill="#EAEBEA"/>
<path d="M122.104 104.198C121.737 105.32 121.535 106.518 121.531 107.762C121.515 112.687 124.571 116.902 128.895 118.599C128.965 126.511 134.875 132.911 142.177 132.936C143.842 132.941 145.436 132.614 146.907 132.013C149.796 133.702 153.322 134.7 157.131 134.713C159.551 134.721 161.859 134.329 163.965 133.616L173.025 167.879L27.0002 167.393L38.4648 85.3586L122.104 104.198Z" fill="#FFE16B"/>
<path d="M165.971 141.214L169.914 156.129L28.7559 154.827L30.8318 139.966L165.971 141.214ZM124.78 115.849C125.928 117.04 127.326 117.987 128.893 118.602C128.942 124.159 131.872 128.97 136.141 131.35L32.7816 126.012L34.8514 111.204L124.78 115.849ZM122.102 104.201C121.735 105.323 121.533 106.521 121.529 107.765C121.529 107.788 121.53 107.81 121.53 107.833L37.2554 94.0022L38.4638 85.3616L122.102 104.201Z" fill="#FFFEE8"/>
<mask id="mask0_3064_20583" style="mask-type:alpha" maskUnits="userSpaceOnUse" x="102" y="80" width="12" height="21">
<path d="M111.889 87.9114C111.851 88.1825 111.922 88.4574 112.087 88.6758L112.468 89.1808C113.842 90.9997 113.481 93.5882 111.662 94.9617L104.121 100.657L102.887 99.0225C101.514 97.2037 101.875 94.6161 103.694 93.2426L104.2 92.8604C104.418 92.6955 104.562 92.4506 104.6 92.1796L106.048 81.8014C106.127 81.237 106.648 80.8434 107.212 80.9221L111.734 81.553C112.298 81.6317 112.692 82.1531 112.613 82.7174L111.889 87.9114Z" fill="#EAEBEA"/>
</mask>
<g mask="url(#mask0_3064_20583)">
<rect x="105.142" y="71.1201" width="13.9096" height="12.7386" transform="rotate(52.9429 105.142 71.1201)" fill="#FF3D3D"/>
</g>
</svg>
