<svg width="326" height="496" viewBox="0 0 326 496" fill="none" xmlns="http://www.w3.org/2000/svg">
<g clip-path="url(#clip0_3033_15015)">
<path d="M311.342 495.976H15.3418V216.976H0.361328L162.998 25L325.635 216.976H311.342V495.976Z" fill="#0F100F"/>
<path d="M280.07 260.226C280.07 265.195 277.123 267.333 273.656 267.333C270.247 267.333 268.63 265.542 268.63 261.96C268.63 259.013 268.861 255.72 269.265 253.177H273.425C270.479 258.84 269.727 260.689 269.727 261.902C269.727 262.942 270.825 263.404 273.656 263.404C275.563 263.404 276.025 262.249 276.025 260.746C276.025 255.026 268.341 244.915 268.341 238.675C268.341 233.533 271.287 231.511 274.754 231.511C277.759 231.511 279.203 233.244 279.203 236.826C279.203 239.137 279.087 241.795 278.567 244.857H274.754C277.354 239.715 278.105 238.04 278.105 236.884C278.105 235.844 277.181 235.44 274.754 235.44C272.847 235.44 272.385 236.48 272.385 237.982C272.385 242.893 280.07 255.2 280.07 260.226Z" fill="#BDFF17"/>
<path d="M267.088 260.226C267.088 265.195 264.142 267.333 260.675 267.333C257.266 267.333 255.648 265.542 255.648 261.96C255.648 259.013 255.879 255.72 256.284 253.177H260.444C257.497 258.84 256.746 260.689 256.746 261.902C256.746 262.942 257.844 263.404 260.675 263.404C262.582 263.404 263.044 262.249 263.044 260.746C263.044 255.026 255.359 244.915 255.359 238.675C255.359 233.533 258.306 231.511 261.773 231.511C264.777 231.511 266.222 233.244 266.222 236.826C266.222 239.137 266.106 241.795 265.586 244.857H261.773C264.373 239.715 265.124 238.04 265.124 236.884C265.124 235.844 264.199 235.44 261.773 235.44C259.866 235.44 259.404 236.48 259.404 237.982C259.404 242.893 267.088 255.2 267.088 260.226Z" fill="#BDFF17"/>
<path d="M246.134 247.573V258.609C246.134 262.769 247.637 263.404 249.254 263.404C250.988 263.404 251.739 261.209 251.854 257.511L252.028 250.751H252.837L253.01 257.684C253.125 263.173 251.277 267.333 247.405 267.333C243.881 267.333 242.09 265.542 242.09 260.573V239.369C242.09 233.649 244.748 231.511 248.214 231.511C251.392 231.511 253.068 233.302 253.068 238.329V247.573H246.134ZM247.81 235.44C246.423 235.44 246.134 236.711 246.134 238.791V246.764H249.601V240.235C249.601 236.017 248.965 235.44 247.81 235.44Z" fill="#BDFF17"/>
<path d="M237.684 235.786C235.835 235.786 233.813 238.849 233.813 244.684V266.755H229.769V232.089H233.755V232.724L232.484 241.506L233.062 241.622C234.275 232.955 235.72 231.511 237.684 231.511C239.417 231.511 240.284 233.417 240.284 237.231C240.284 238.733 240.111 242.604 239.129 247.746H234.737C238.031 240.813 239.244 238.329 239.244 237.289C239.244 236.249 238.724 235.786 237.684 235.786Z" fill="#BDFF17"/>
<path d="M226.504 257.511C226.504 264.444 224.828 267.333 221.131 267.333C219.686 267.333 218.415 266.582 217.144 265.426L216.797 265.773L218.242 267.275V274.266H214.197V232.089H218.184V232.724L216.855 241.506L217.433 241.622C218.646 232.955 220.611 231.511 222.806 231.511C224.944 231.511 226.504 233.302 226.504 236.191V257.511ZM222.344 238.444C222.344 236.364 221.824 235.44 220.842 235.44C219.571 235.44 218.242 239.369 218.242 244.684V262.48C218.993 263.231 219.802 263.635 220.726 263.635C221.824 263.635 222.344 262.826 222.344 257.857V238.444Z" fill="#BDFF17"/>
<path d="M212.83 232.089L207.398 247.862L212.945 266.756H208.381L206.474 258.724L205.087 251.156H204.567L202.776 266.756H197.923L203.701 248.613L198.154 232.089H202.718L204.625 239.196L206.012 245.32H206.647L207.976 232.089H212.83Z" fill="#BDFF17"/>
<path d="M191.618 245.146V262.999H197.858V266.755H187.284V224.577H197.28V228.333H191.618V243.875H195.72V245.146H191.618Z" fill="#BDFF17"/>
<path d="M169.716 247.573V258.609C169.716 262.769 171.219 263.404 172.836 263.404C174.57 263.404 175.321 261.209 175.436 257.511L175.61 250.751H176.419L176.592 257.684C176.707 263.173 174.859 267.333 170.987 267.333C167.463 267.333 165.672 265.542 165.672 260.573V239.369C165.672 233.649 168.33 231.511 171.796 231.511C174.974 231.511 176.65 233.302 176.65 238.329V247.573H169.716ZM171.392 235.44C170.005 235.44 169.716 236.711 169.716 238.791V246.764H173.183V240.235C173.183 236.017 172.547 235.44 171.392 235.44Z" fill="#BDFF17"/>
<path d="M162.422 224.577V266.755H158.378V224.577H162.422Z" fill="#BDFF17"/>
<path d="M148.817 267.333C145.177 267.333 143.213 265.542 143.213 260.573V239.311C143.213 233.649 146.102 231.511 149.511 231.511C153.208 231.511 155.115 233.302 155.115 238.271V259.533C155.115 265.195 152.226 267.333 148.817 267.333ZM148.817 235.44C147.546 235.44 147.257 236.711 147.257 238.733V258.609C147.257 262.769 148.297 263.404 149.511 263.404C150.782 263.404 151.071 262.133 151.071 260.111V240.235C151.071 236.075 149.973 235.44 148.817 235.44Z" fill="#BDFF17"/>
<path d="M132.959 224.577C137.928 224.577 140.817 226.599 140.817 231.857V246.822C140.817 252.484 136.888 254.622 132.208 254.622H132.092V266.755H127.759V224.577H132.959ZM136.483 247.399V233.302C136.483 229.546 135.443 228.506 132.554 228.506H132.092V250.693H132.959C135.79 250.693 136.483 249.422 136.483 247.399Z" fill="#BDFF17"/>
<path d="M108.871 224.577V232.724L107.484 241.506L108.062 241.622C109.275 232.955 111.24 231.51 113.435 231.51C115.573 231.51 117.133 233.302 117.133 236.19V266.755H113.088V238.444C113.088 236.364 112.8 235.439 111.702 235.439C110.084 235.439 108.871 239.426 108.871 244.857V266.755H104.826V224.577H108.871Z" fill="#BDFF17"/>
<path d="M97.2706 235.036V258.609C97.2706 262.769 98.3106 263.404 99.2928 263.404C100.679 263.404 101.142 261.96 101.257 258.089L101.431 250.693H102.239L102.413 258.262C102.528 263.404 100.968 267.333 97.675 267.333C94.7284 267.333 93.2261 265.542 93.2261 260.573V235.036H90.5684V232.089H93.2261V226.369C94.555 226.08 96.2884 225.387 97.2128 224L97.8484 224.173L96.635 231.627L96.9239 232.089H102.297V235.036H97.2706Z" fill="#BDFF17"/>
<path d="M87.3365 235.786C85.4876 235.786 83.4653 238.849 83.4653 244.684V266.755H79.4209V232.089H83.4076V232.724L82.1365 241.506L82.7142 241.622C83.9276 232.955 85.372 231.511 87.3365 231.511C89.0698 231.511 89.9365 233.417 89.9365 237.231C89.9365 238.733 89.7631 242.604 88.7809 247.746H84.3898C87.6831 240.813 88.8965 238.329 88.8965 237.289C88.8965 236.249 88.3765 235.786 87.3365 235.786Z" fill="#BDFF17"/>
<path d="M69.8603 267.333C66.2203 267.333 64.2559 265.542 64.2559 260.573V239.311C64.2559 233.649 67.1447 231.511 70.5536 231.511C74.2514 231.511 76.1581 233.302 76.1581 238.271V259.533C76.1581 265.195 73.2692 267.333 69.8603 267.333ZM69.8603 235.44C68.5892 235.44 68.3003 236.711 68.3003 238.733V258.609C68.3003 262.769 69.3403 263.404 70.5536 263.404C71.8247 263.404 72.1136 262.133 72.1136 260.111V240.235C72.1136 236.075 71.0159 235.44 69.8603 235.44Z" fill="#BDFF17"/>
<path d="M57.7921 246.302L57.3877 224.577H61.5477V266.755H57.4455L51.8988 231.684H51.2055L52.0143 245.03L52.361 266.755H48.2588V224.577H52.361L57.9077 259.648H58.601L57.7921 246.302Z" fill="#BDFF17"/>
<g filter="url(#filter0_g_3033_15015)">
<path d="M44.9141 293.25V294H44.1641V293.25H44.9141ZM47.9141 293.25V294H46.4141V293.25H47.9141ZM50.9141 293.25V294H49.4141V293.25H50.9141ZM53.9141 293.25V294H52.4141V293.25H53.9141ZM56.9141 293.25V294H55.4141V293.25H56.9141ZM59.9141 293.25V294H58.4141V293.25H59.9141ZM62.9141 293.25V294H61.4141V293.25H62.9141ZM65.9141 293.25V294H64.4141V293.25H65.9141ZM68.9141 293.25V294H67.4141V293.25H68.9141ZM71.9141 293.25V294H70.4141V293.25H71.9141ZM74.9141 293.25V294H73.4141V293.25H74.9141ZM77.9141 293.25V294H76.4141V293.25H77.9141ZM80.9141 293.25V294H79.4141V293.25H80.9141ZM83.9141 293.25V294H82.4141V293.25H83.9141ZM86.9141 293.25V294H85.4141V293.25H86.9141ZM89.9141 293.25V294H88.4141V293.25H89.9141ZM92.9141 293.25V294H91.4141V293.25H92.9141ZM95.9141 293.25V294H94.4141V293.25H95.9141ZM98.9141 293.25V294H97.4141V293.25H98.9141ZM101.914 293.25V294H100.414V293.25H101.914ZM104.914 293.25V294H103.414V293.25H104.914ZM107.914 293.25V294H106.414V293.25H107.914ZM110.914 293.25V294H109.414V293.25H110.914ZM113.914 293.25V294H112.414V293.25H113.914ZM116.914 293.25V294H115.414V293.25H116.914ZM119.914 293.25V294H118.414V293.25H119.914ZM122.914 293.25V294H121.414V293.25H122.914ZM125.914 293.25V294H124.414V293.25H125.914ZM128.914 293.25V294H127.414V293.25H128.914ZM131.914 293.25V294H130.414V293.25H131.914ZM134.914 293.25V294H133.414V293.25H134.914ZM137.914 293.25V294H136.414V293.25H137.914ZM140.914 293.25V294H139.414V293.25H140.914ZM143.914 293.25V294H142.414V293.25H143.914ZM146.914 293.25V294H145.414V293.25H146.914ZM149.914 293.25V294H148.414V293.25H149.914ZM152.914 293.25V294H151.414V293.25H152.914ZM155.914 293.25V294H154.414V293.25H155.914ZM158.914 293.25V294H157.414V293.25H158.914ZM161.914 293.25V294H160.414V293.25H161.914ZM164.914 293.25V294H163.414V293.25H164.914ZM167.914 293.25V294H166.414V293.25H167.914ZM170.914 293.25V294H169.414V293.25H170.914ZM173.914 293.25V294H172.414V293.25H173.914ZM176.914 293.25V294H175.414V293.25H176.914ZM179.914 293.25V294H178.414V293.25H179.914ZM182.914 293.25V294H181.414V293.25H182.914ZM185.914 293.25V294H184.414V293.25H185.914ZM188.914 293.25V294H187.414V293.25H188.914ZM191.914 293.25V294H190.414V293.25H191.914ZM194.914 293.25V294H193.414V293.25H194.914ZM197.914 293.25V294H196.414V293.25H197.914ZM200.914 293.25V294H199.414V293.25H200.914ZM203.914 293.25V294H202.414V293.25H203.914ZM206.914 293.25V294H205.414V293.25H206.914ZM209.914 293.25V294H208.414V293.25H209.914ZM212.914 293.25V294H211.414V293.25H212.914ZM215.914 293.25V294H214.414V293.25H215.914ZM218.914 293.25V294H217.414V293.25H218.914ZM221.914 293.25V294H220.414V293.25H221.914ZM224.914 293.25V294H223.414V293.25H224.914ZM227.914 293.25V294H226.414V293.25H227.914ZM230.914 293.25V294H229.414V293.25H230.914ZM233.914 293.25V294H232.414V293.25H233.914ZM236.914 293.25V294H235.414V293.25H236.914ZM239.914 293.25V294H238.414V293.25H239.914ZM242.914 293.25V294H241.414V293.25H242.914ZM245.914 293.25V294H244.414V293.25H245.914ZM248.914 293.25V294H247.414V293.25H248.914ZM251.914 293.25V294H250.414V293.25H251.914ZM254.914 293.25V294H253.414V293.25H254.914ZM257.914 293.25V294H256.414V293.25H257.914ZM260.914 293.25V294H259.414V293.25H260.914ZM263.914 293.25V294H262.414V293.25H263.914ZM266.914 293.25V294H265.414V293.25H266.914ZM269.914 293.25V294H268.414V293.25H269.914ZM272.914 293.25V294H271.414V293.25H272.914ZM275.914 293.25V294H274.414V293.25H275.914ZM278.914 293.25V294H277.414V293.25H278.914ZM281.914 293.25V294H280.414V293.25H281.914ZM284.164 293.25V294H283.414V293.25H284.164Z" fill="#BDFF17"/>
</g>
<path d="M61.0203 315.605C60.0958 315.605 59.0847 317.136 59.0847 320.053V331.089H57.0625V313.756H59.0558V314.073L58.4203 318.465L58.7092 318.522C59.3158 314.189 60.0381 313.467 61.0203 313.467C61.8869 313.467 62.3203 314.42 62.3203 316.327C62.3203 317.078 62.2336 319.013 61.7425 321.585H59.5469C61.1936 318.118 61.8003 316.876 61.8003 316.356C61.8003 315.836 61.5403 315.605 61.0203 315.605Z" fill="#BDFF17"/>
<path d="M52.2817 331.378C50.4617 331.378 49.4795 330.482 49.4795 327.998V317.367C49.4795 314.536 50.9239 313.467 52.6284 313.467C54.4773 313.467 55.4306 314.362 55.4306 316.847V327.478C55.4306 330.309 53.9862 331.378 52.2817 331.378ZM52.2817 315.431C51.6462 315.431 51.5017 316.067 51.5017 317.078V327.016C51.5017 329.096 52.0217 329.413 52.6284 329.413C53.2639 329.413 53.4084 328.778 53.4084 327.767V317.829C53.4084 315.749 52.8595 315.431 52.2817 315.431Z" fill="#BDFF17"/>
<path d="M49.1618 310V311.878H46.3307V320.747H48.3818V321.382H46.3307V331.089H44.1641V310H49.1618Z" fill="#BDFF17"/>
<g filter="url(#filter1_g_3033_15015)">
<line x1="44.1641" y1="347.003" x2="284.164" y2="347.003" stroke="#BDFF17" stroke-width="0.75" stroke-dasharray="1.5 1.5"/>
</g>
<path d="M92.8698 379.585L93.6498 367.423H96.0187L91.9742 388.512H89.4898L92.4654 382.387H91.6276L88.7676 367.423H90.9631L91.9165 373.807L92.552 379.585H92.8698Z" fill="#BDFF17"/>
<path d="M86.1451 368.896V380.682C86.1451 382.762 86.6651 383.08 87.1562 383.08C87.8495 383.08 88.0806 382.358 88.1384 380.422L88.2251 376.725H88.6295L88.7162 380.509C88.7739 383.08 87.9939 385.045 86.3473 385.045C84.8739 385.045 84.1228 384.149 84.1228 381.665V368.896H82.7939V367.422H84.1228V364.562C84.7873 364.418 85.6539 364.071 86.1162 363.378L86.4339 363.465L85.8273 367.191L85.9717 367.422H88.6584V368.896H86.1451Z" fill="#BDFF17"/>
<path d="M77.8972 363.667V367.74L77.2039 372.131L77.4928 372.189C78.0994 367.856 79.0817 367.134 80.1794 367.134C81.2483 367.134 82.0283 368.029 82.0283 369.474V384.756H80.0061V370.6C80.0061 369.56 79.8617 369.098 79.3128 369.098C78.5039 369.098 77.8972 371.091 77.8972 373.807V384.756H75.875V363.667H77.8972Z" fill="#BDFF17"/>
<path d="M75.2465 367.423V370.745C73.5709 368.347 72.5598 367.943 71.202 367.914V368.261C72.7909 368.463 73.8887 369.532 73.8887 371.381V377.621C73.8887 380.336 72.4442 381.376 70.7398 381.376C70.2487 381.376 69.8153 381.318 69.4687 381.145C68.9776 381.607 68.5731 382.098 68.5731 382.387C68.5731 382.647 68.7464 382.792 69.2953 382.792H72.3576C74.1487 382.792 74.9865 383.398 74.9865 384.583C74.9865 386.114 72.2131 388.512 69.8153 388.512C68.082 388.512 67.3887 387.616 67.3887 386.75C67.3887 385.71 68.0242 385.045 68.8042 384.698V384.525C68.1398 384.352 67.6776 383.976 67.6776 383.225C67.6776 382.243 68.5153 381.521 69.0064 380.914C68.3131 380.394 67.9376 379.47 67.9376 377.996V371.323C67.9376 368.492 69.382 367.423 71.0865 367.423H75.2465ZM71.8664 377.996V371.785C71.8664 369.705 71.3176 369.387 70.7398 369.387C70.1042 369.387 69.9598 370.023 69.9598 371.034V377.245C69.9598 379.325 70.4798 379.643 71.0865 379.643C71.722 379.643 71.8664 379.007 71.8664 377.996ZM73.5709 385.854C73.5709 385.161 73.3398 384.756 72.3576 384.756H69.6131C69.1509 384.987 69.0064 385.276 69.0064 385.594C69.0064 386.172 69.4398 386.663 71.6931 386.663C73.022 386.663 73.5709 386.432 73.5709 385.854Z" fill="#BDFF17"/>
<path d="M64.4856 384.756V384.438L65.1789 380.047L64.89 379.99C64.2834 384.323 63.3012 385.045 62.2034 385.045C61.1345 385.045 60.3545 384.15 60.3545 382.705V367.423H62.3767V381.578C62.3767 382.618 62.5212 383.081 63.07 383.081C63.8789 383.081 64.4856 381.087 64.4856 378.401V367.423H66.5078V384.756H64.4856Z" fill="#BDFF17"/>
<path d="M53.7797 385.045C52.6819 385.045 52.1042 384.38 52.1042 382.994V381C52.1042 378.66 53.3175 377.736 55.5997 375.598V370.254C55.5997 369.329 55.3686 369.098 54.4153 369.098C52.913 369.098 52.5375 369.734 52.5375 370.745C52.5375 371.958 53.0286 373.027 55.3975 375.425H52.6242C52.0464 374.038 51.873 372.392 51.873 371.063C51.873 369.243 53.2886 367.134 55.1086 367.134C56.7842 367.134 57.6219 368.029 57.6219 369.503V381.347C57.6219 382.907 57.9108 383.08 58.2286 383.08C58.4886 383.08 58.6908 382.907 58.7197 381.954L58.8064 376.898H59.2108L59.2975 381.838C59.3264 383.658 59.0375 385.045 57.6797 385.045C56.4953 385.045 55.9753 384.207 56.3219 380.105L56.033 380.047C55.5997 384.352 54.8775 385.045 53.7797 385.045ZM54.6175 382.936C55.253 382.936 55.5997 381.174 55.5997 378.516V376.205C54.3286 377.418 54.1264 378.14 54.1264 379.354V382.243C54.1264 382.763 54.3286 382.936 54.6175 382.936Z" fill="#BDFF17"/>
<path d="M48.9307 374.529L48.7285 363.667H50.8085V384.756H48.7574L45.9841 367.22H45.6374L46.0418 373.894L46.2152 384.756H44.1641V363.667H46.2152L48.9885 381.203H49.3352L48.9307 374.529Z" fill="#BDFF17"/>
<rect x="112.019" y="368.736" width="14.4167" height="14.4167" stroke="#BDFF17" stroke-width="0.75"/>
<path d="M211.142 376.754V382.272C211.142 384.352 211.893 384.669 212.702 384.669C213.569 384.669 213.945 383.572 214.002 381.723L214.089 378.343H214.493L214.58 381.809C214.638 384.554 213.713 386.634 211.778 386.634C210.016 386.634 209.12 385.738 209.12 383.254V372.652C209.12 369.792 210.449 368.723 212.182 368.723C213.771 368.723 214.609 369.618 214.609 372.132V376.754H211.142ZM211.98 370.687C211.287 370.687 211.142 371.323 211.142 372.363V376.349H212.876V373.085C212.876 370.976 212.558 370.687 211.98 370.687Z" fill="#BDFF17"/>
<path d="M207.074 371.467C207.074 370.918 206.612 370.687 205.514 370.687C204.648 370.687 204.474 371.323 204.474 372.363V382.272C204.474 384.352 205.081 384.669 205.745 384.669C206.41 384.669 206.699 383.572 206.757 381.723L206.843 378.314H207.248L207.334 381.809C207.392 384.554 206.554 386.634 204.821 386.634C203.261 386.634 202.452 385.738 202.452 383.254V372.652C202.452 369.792 203.81 368.723 205.399 368.723C206.901 368.723 207.623 369.618 207.623 371.438C207.623 372.189 207.537 374.125 207.045 376.696H204.85C206.583 373.316 207.074 372.218 207.074 371.467Z" fill="#BDFF17"/>
<path d="M198.285 366.729H201.347V365.256H198.285V366.729ZM200.827 369.011V386.345H198.805V369.011H200.827Z" fill="#BDFF17"/>
<path d="M195.573 376.118L195.371 365.256H197.451V386.345H195.4L192.627 368.809H192.28L192.684 375.483L192.858 386.345H190.807V365.256H192.858L195.631 382.791H195.978L195.573 376.118Z" fill="#BDFF17"/>
<rect width="14.4167" height="14.4167" transform="translate(230.609 368.736)" fill="#BDFF17"/>
<rect x="230.609" y="368.736" width="14.4167" height="14.4167" stroke="#BDFF17" stroke-width="0.75"/>
<g filter="url(#filter2_g_3033_15015)">
<line x1="44.1641" y1="404.137" x2="284.164" y2="404.137" stroke="#BDFF17" stroke-width="0.75" stroke-dasharray="1.5 1.5"/>
</g>
<path d="M68.3938 429.034L68.6827 429.092C69.2893 424.701 70.1849 423.979 71.2249 423.979C72.2071 423.979 72.9293 424.874 72.9293 426.319V441.601H70.9071V427.445C70.9071 426.405 70.7915 425.943 70.3582 425.943C69.6938 425.943 69.0871 427.994 69.0871 430.623V441.601H67.0649V427.445C67.0649 426.405 66.9493 425.943 66.516 425.943C65.8515 425.943 65.2449 427.994 65.2449 430.623V441.601H63.2227V424.267H65.2449V424.585L64.5515 428.976L64.8404 429.034C65.4471 424.701 66.3427 423.979 67.3827 423.979C68.3071 423.979 69.0004 424.759 68.7982 426.203L68.3938 429.034Z" fill="#BDFF17"/>
<path d="M58.4428 441.89C56.6228 441.89 55.6406 440.994 55.6406 438.51V427.879C55.6406 425.047 57.0851 423.979 58.7895 423.979C60.6384 423.979 61.5917 424.874 61.5917 427.359V437.99C61.5917 440.821 60.1473 441.89 58.4428 441.89ZM58.4428 425.943C57.8073 425.943 57.6628 426.579 57.6628 427.59V437.527C57.6628 439.607 58.1828 439.925 58.7895 439.925C59.4251 439.925 59.5695 439.29 59.5695 438.279V428.341C59.5695 426.261 59.0206 425.943 58.4428 425.943Z" fill="#BDFF17"/>
<path d="M53.4373 426.116C52.5128 426.116 51.5017 427.647 51.5017 430.565V441.601H49.4795V424.267H51.4728V424.585L50.8373 428.976L51.1262 429.034C51.7328 424.701 52.455 423.979 53.4373 423.979C54.3039 423.979 54.7373 424.932 54.7373 426.839C54.7373 427.59 54.6506 429.525 54.1595 432.096H51.9639C53.6106 428.63 54.2173 427.387 54.2173 426.867C54.2173 426.347 53.9573 426.116 53.4373 426.116Z" fill="#BDFF17"/>
<path d="M49.1618 420.512V422.389H46.3307V431.258H48.3818V431.894H46.3307V441.601H44.1641V420.512H49.1618Z" fill="#BDFF17"/>
<path d="M269.783 465.712C269.25 465.712 268.796 465.605 268.423 465.392C268.05 465.179 267.863 464.779 267.863 464.192C267.863 463.445 268.05 462.592 268.423 461.632C268.796 460.672 269.223 459.739 269.703 458.832C270.183 457.872 270.61 457.099 270.983 456.512C269.116 458.485 267.17 460.352 265.143 462.112C264.13 462.965 263.01 463.765 261.783 464.512C260.556 465.259 259.25 465.632 257.863 465.632C257.33 465.632 256.956 465.472 256.743 465.152C256.53 464.779 256.423 464.352 256.423 463.872C256.423 463.605 256.45 463.418 256.503 463.312C256.77 461.232 257.436 459.072 258.503 456.832C259.57 454.592 260.876 452.485 262.423 450.512C263.97 448.539 265.543 446.939 267.143 445.712C268.956 444.325 270.956 443.632 273.143 443.632H282.343C282.61 443.632 282.743 443.739 282.743 443.952C282.743 444.379 282.503 444.592 282.023 444.592C281.49 444.592 280.956 444.939 280.423 445.632C279.89 446.272 279.49 446.805 279.223 447.232C278.85 447.819 278.263 448.805 277.463 450.192C276.663 451.579 275.836 453.099 274.983 454.752C274.183 456.352 273.49 457.845 272.903 459.232C272.316 460.619 272.023 461.632 272.023 462.272C272.023 463.019 272.396 463.392 273.143 463.392C273.943 463.392 274.85 463.019 275.863 462.272C276.876 461.525 277.89 460.619 278.903 459.552C279.97 458.432 280.93 457.339 281.783 456.272C282.69 455.152 283.41 454.272 283.943 453.632C284.263 453.952 284.236 454.405 283.863 454.992C283.543 455.525 283.25 455.952 282.983 456.272C281.916 457.659 280.69 459.099 279.303 460.592C277.916 462.032 276.396 463.259 274.743 464.272C273.143 465.232 271.49 465.712 269.783 465.712ZM261.143 462.912C261.783 462.912 262.663 462.459 263.783 461.552C264.956 460.592 266.21 459.419 267.543 458.032C268.876 456.592 270.13 455.099 271.303 453.552C272.476 451.952 273.436 450.512 274.183 449.232C274.983 447.899 275.383 446.885 275.383 446.192C275.383 445.605 275.196 445.205 274.823 444.992C274.503 444.779 274.076 444.672 273.543 444.672C272.69 444.672 271.756 444.992 270.743 445.632C269.783 446.219 269.01 446.805 268.423 447.392C267.783 447.979 267.01 448.912 266.103 450.192C265.25 451.419 264.396 452.779 263.543 454.272C262.69 455.765 261.97 457.205 261.383 458.592C260.796 459.979 260.503 461.099 260.503 461.952C260.503 462.592 260.716 462.912 261.143 462.912Z" fill="#BDFF17"/>
<path d="M247.443 465.712C246.91 465.712 246.456 465.605 246.083 465.392C245.71 465.178 245.523 464.778 245.523 464.192C245.523 463.445 245.71 462.565 246.083 461.552C246.51 460.538 246.963 459.525 247.443 458.512C247.923 457.498 248.323 456.672 248.643 456.032C248.91 455.552 249.256 454.805 249.683 453.792C250.163 452.725 250.643 451.632 251.123 450.512C251.656 449.338 252.083 448.352 252.403 447.552C252.776 446.752 252.963 446.352 252.963 446.352C252.483 446.885 251.843 447.632 251.043 448.592C250.296 449.552 249.47 450.565 248.563 451.632C247.71 452.645 246.91 453.605 246.163 454.512C245.47 455.418 244.963 456.085 244.643 456.512C244.483 456.725 244.35 456.832 244.243 456.832C244.136 456.832 244.083 456.698 244.083 456.432C244.083 456.005 244.216 455.605 244.483 455.232C245.123 454.432 245.896 453.472 246.803 452.352C247.71 451.178 248.616 450.005 249.523 448.832C250.483 447.658 251.31 446.618 252.003 445.712C251.576 445.712 251.016 445.738 250.323 445.792C249.683 445.845 249.096 445.925 248.563 446.032C248.03 446.085 247.736 446.112 247.683 446.112C247.416 446.112 247.443 445.898 247.763 445.472C248.083 445.045 248.51 444.618 249.043 444.192C249.576 443.765 249.976 443.552 250.243 443.552C250.296 443.552 250.723 443.578 251.523 443.632C252.323 443.632 252.91 443.632 253.283 443.632C254.35 442.192 255.39 440.538 256.403 438.672C257.47 436.805 258.51 434.752 259.523 432.512C259.95 432.458 260.67 432.165 261.683 431.632C262.75 431.045 263.576 430.458 264.163 429.872C264.43 429.605 264.643 429.472 264.803 429.472C265.123 429.472 265.123 429.685 264.803 430.112C264.43 430.538 263.79 431.445 262.883 432.832C261.976 434.165 260.963 435.792 259.843 437.712C258.723 439.578 257.656 441.552 256.643 443.632H263.123C263.71 443.632 264.003 443.712 264.003 443.872C264.003 444.085 263.603 444.298 262.803 444.512C261.896 444.778 260.936 444.938 259.923 444.992C258.963 445.045 258.056 445.152 257.203 445.312C256.403 445.472 255.816 445.818 255.443 446.352C255.123 446.725 254.67 447.525 254.083 448.752C253.496 449.978 252.856 451.392 252.163 452.992C251.523 454.538 250.963 456.112 250.483 457.712C250.003 459.258 249.71 460.565 249.603 461.632V461.952C249.603 462.378 249.736 462.725 250.003 462.992C250.27 463.258 250.536 463.392 250.803 463.392C251.496 463.392 252.376 462.965 253.443 462.112C254.563 461.258 255.71 460.245 256.883 459.072C258.056 457.845 259.07 456.725 259.923 455.712C260.296 455.285 260.616 454.885 260.883 454.512C261.203 454.138 261.39 453.898 261.443 453.792C261.55 454.005 261.603 454.165 261.603 454.272C261.603 454.592 261.496 454.938 261.283 455.312C261.123 455.685 260.936 456.005 260.723 456.272C259.71 457.605 258.483 459.018 257.043 460.512C255.603 461.952 254.056 463.178 252.403 464.192C250.803 465.205 249.15 465.712 247.443 465.712Z" fill="#BDFF17"/>
<path d="M219.517 466.671C219.304 466.671 219.304 466.431 219.517 465.951C219.784 465.471 220.024 464.938 220.237 464.351C220.504 463.765 220.77 463.125 221.037 462.431C221.57 461.151 222.157 459.711 222.797 458.111C223.437 456.511 224.05 454.965 224.637 453.471C225.224 451.925 225.73 450.618 226.157 449.551C226.637 448.431 226.957 447.711 227.117 447.391C226.37 448.191 225.464 449.205 224.397 450.431C223.384 451.605 222.424 452.751 221.517 453.871C220.61 454.991 219.917 455.871 219.437 456.511C219.277 456.725 219.144 456.831 219.037 456.831C218.93 456.831 218.877 456.698 218.877 456.431C218.877 456.005 219.01 455.605 219.277 455.231C220.29 453.951 221.41 452.511 222.637 450.911C223.917 449.311 225.064 447.845 226.077 446.511C227.09 445.125 227.73 444.218 227.997 443.791C228.584 443.685 229.437 443.525 230.557 443.311C231.73 443.098 232.53 442.805 232.957 442.431C233.117 442.271 233.277 442.191 233.437 442.191C233.544 442.191 233.597 442.298 233.597 442.511C233.65 442.671 233.597 442.858 233.437 443.071C233.117 443.445 232.557 444.325 231.757 445.711C231.01 447.045 230.184 448.538 229.277 450.191C228.424 451.845 227.624 453.338 226.877 454.671C227.517 453.818 228.21 452.991 228.957 452.191C229.704 451.391 230.424 450.618 231.117 449.871C231.757 449.231 232.637 448.431 233.757 447.471C234.877 446.511 236.05 445.631 237.277 444.831C238.504 444.031 239.57 443.578 240.477 443.471C240.69 443.418 240.877 443.391 241.037 443.391C241.25 443.391 241.41 443.391 241.517 443.391C242.69 443.391 243.277 443.818 243.277 444.671C243.277 445.311 242.93 446.165 242.237 447.231C241.864 447.818 241.277 448.805 240.477 450.191C239.73 451.525 238.957 452.991 238.157 454.591C237.41 456.138 236.744 457.605 236.157 458.991C235.624 460.325 235.357 461.311 235.357 461.951C235.357 462.698 235.73 463.071 236.477 463.071C237.384 463.071 238.37 462.618 239.437 461.711C240.557 460.805 241.757 459.658 243.037 458.271C244.317 456.831 245.597 455.311 246.877 453.711C246.984 453.818 247.037 454.005 247.037 454.271C247.037 454.645 246.904 455.018 246.637 455.391C246.424 455.711 246.21 456.005 245.997 456.271C245.464 456.965 244.744 457.845 243.837 458.911C242.984 459.925 242.104 460.938 241.197 461.951C240.29 462.911 239.464 463.685 238.717 464.271C238.184 464.645 237.49 465.045 236.637 465.471C235.784 465.898 234.93 466.111 234.077 466.111C233.117 466.111 232.45 465.871 232.077 465.391C231.704 464.858 231.517 464.218 231.517 463.471C231.517 462.618 231.677 461.711 231.997 460.751C232.317 459.791 232.664 458.885 233.037 458.031C233.464 457.125 233.784 456.458 233.997 456.031C234.957 454.165 235.837 452.405 236.637 450.751C237.437 449.098 237.997 447.925 238.317 447.231C238.477 446.911 238.557 446.645 238.557 446.431C238.557 446.058 238.264 446.031 237.677 446.351C237.09 446.671 236.37 447.151 235.517 447.791C234.717 448.431 233.97 449.071 233.277 449.711C232.584 450.298 232.13 450.698 231.917 450.911C229.944 452.991 228.21 455.311 226.717 457.871C225.277 460.378 224.05 462.965 223.037 465.631C222.344 465.685 221.65 465.871 220.957 466.191C220.264 466.511 219.784 466.671 219.517 466.671Z" fill="#BDFF17"/>
<path d="M207.601 465.712C207.068 465.712 206.615 465.605 206.241 465.392C205.868 465.179 205.681 464.779 205.681 464.192C205.681 463.445 205.868 462.592 206.241 461.632C206.615 460.672 207.041 459.739 207.521 458.832C208.001 457.872 208.428 457.099 208.801 456.512C206.935 458.485 204.988 460.352 202.961 462.112C201.948 462.965 200.828 463.765 199.601 464.512C198.375 465.259 197.068 465.632 195.681 465.632C195.148 465.632 194.775 465.472 194.561 465.152C194.348 464.779 194.241 464.352 194.241 463.872C194.241 463.605 194.268 463.418 194.321 463.312C194.588 461.232 195.255 459.072 196.321 456.832C197.388 454.592 198.695 452.485 200.241 450.512C201.788 448.539 203.361 446.939 204.961 445.712C206.775 444.325 208.775 443.632 210.961 443.632H220.161C220.428 443.632 220.561 443.739 220.561 443.952C220.561 444.379 220.321 444.592 219.841 444.592C219.308 444.592 218.775 444.939 218.241 445.632C217.708 446.272 217.308 446.805 217.041 447.232C216.668 447.819 216.081 448.805 215.281 450.192C214.481 451.579 213.655 453.099 212.801 454.752C212.001 456.352 211.308 457.845 210.721 459.232C210.135 460.619 209.841 461.632 209.841 462.272C209.841 463.019 210.215 463.392 210.961 463.392C211.761 463.392 212.668 463.019 213.681 462.272C214.695 461.525 215.708 460.619 216.721 459.552C217.788 458.432 218.748 457.339 219.601 456.272C220.508 455.152 221.228 454.272 221.761 453.632C222.081 453.952 222.055 454.405 221.681 454.992C221.361 455.525 221.068 455.952 220.801 456.272C219.735 457.659 218.508 459.099 217.121 460.592C215.735 462.032 214.215 463.259 212.561 464.272C210.961 465.232 209.308 465.712 207.601 465.712ZM198.961 462.912C199.601 462.912 200.481 462.459 201.601 461.552C202.775 460.592 204.028 459.419 205.361 458.032C206.695 456.592 207.948 455.099 209.121 453.552C210.295 451.952 211.255 450.512 212.001 449.232C212.801 447.899 213.201 446.885 213.201 446.192C213.201 445.605 213.015 445.205 212.641 444.992C212.321 444.779 211.895 444.672 211.361 444.672C210.508 444.672 209.575 444.992 208.561 445.632C207.601 446.219 206.828 446.805 206.241 447.392C205.601 447.979 204.828 448.912 203.921 450.192C203.068 451.419 202.215 452.779 201.361 454.272C200.508 455.765 199.788 457.205 199.201 458.592C198.615 459.979 198.321 461.099 198.321 461.952C198.321 462.592 198.535 462.912 198.961 462.912Z" fill="#BDFF17"/>
<path d="M176.787 468.192C174.921 468.192 172.947 467.898 170.867 467.312C168.841 466.778 167.027 465.872 165.427 464.592C163.881 463.312 162.841 461.605 162.307 459.472C162.254 459.205 162.201 458.912 162.147 458.592C162.147 458.272 162.147 457.952 162.147 457.632C162.147 455.978 162.521 454.378 163.267 452.832C164.014 451.285 164.921 450.112 165.987 449.312H166.067C166.174 449.312 166.307 449.445 166.467 449.712C166.681 449.925 166.681 450.085 166.467 450.192C165.934 450.725 165.534 451.338 165.267 452.032C165.054 452.672 164.947 453.365 164.947 454.112C164.947 455.125 165.107 456.165 165.427 457.232C165.801 458.245 166.254 459.125 166.787 459.872C168.121 461.738 169.961 463.232 172.307 464.352C174.707 465.418 177.054 465.952 179.347 465.952C182.494 465.952 184.921 465.018 186.627 463.152C188.387 461.285 189.267 458.992 189.267 456.272C189.267 454.618 188.947 452.965 188.307 451.312C187.454 449.018 186.307 446.778 184.867 444.592C183.481 442.352 182.201 440.165 181.027 438.032C180.014 436.112 179.507 434.165 179.507 432.192C179.507 430.112 180.147 428.112 181.427 426.192C182.707 424.485 184.387 423.125 186.467 422.112C188.601 421.045 190.761 420.512 192.947 420.512C194.441 420.512 195.881 420.778 197.267 421.312C198.654 421.845 199.907 422.725 201.027 423.952C201.347 424.432 201.507 425.045 201.507 425.792C201.507 426.858 201.294 427.685 200.867 428.272C200.387 428.965 199.854 429.872 199.267 430.992C198.681 432.112 198.334 432.885 198.227 433.312C198.121 433.365 197.854 433.472 197.427 433.632C197.054 433.738 196.814 433.712 196.707 433.552C196.921 433.125 197.214 432.352 197.587 431.232C197.961 430.112 198.147 429.098 198.147 428.192C198.147 427.605 198.121 426.965 198.067 426.272C198.067 425.525 197.721 424.885 197.027 424.352C196.387 423.765 195.561 423.258 194.547 422.832C193.534 422.405 192.307 422.192 190.867 422.192C187.934 422.192 185.694 423.045 184.147 424.752C182.601 426.458 181.827 428.325 181.827 430.352C181.827 431.365 182.041 432.378 182.467 433.392C183.267 435.312 184.387 437.125 185.827 438.832C187.267 440.538 188.681 442.298 190.067 444.112C191.507 445.872 192.627 447.792 193.427 449.872C193.961 451.258 194.227 452.672 194.227 454.112C194.227 456.192 193.694 458.085 192.627 459.792C191.614 461.498 190.227 462.992 188.467 464.272C186.761 465.498 184.894 466.458 182.867 467.152C180.841 467.845 178.814 468.192 176.787 468.192Z" fill="#BDFF17"/>
<path d="M209.822 100.414H194.068L233.205 143.664H217.356L265.248 196.164H60L107.892 143.664H92.043L131.18 100.414H115.426L162.624 48.6641L209.822 100.414Z" fill="#BDFF17"/>
<path d="M132.21 54.2444L141.977 40.1931L127.993 30.3299L144.508 25.8444L140.135 9.2998L155.669 16.4789L162.954 0.994379L170.239 16.4789L185.773 9.2998L181.4 25.8444L197.915 30.3299L183.93 40.1931L193.698 54.2444L176.645 52.8111L175.096 69.8535L162.954 57.7944L150.812 69.8535L149.262 52.8111L132.21 54.2444Z" fill="#F8FF33"/>
<rect x="160" y="85.1514" width="20" height="20" transform="rotate(-20.9507 160 85.1514)" fill="#FF6A38"/>
<rect x="206.844" y="159.667" width="20" height="20" transform="rotate(15 206.844 159.667)" fill="#FF6A38"/>
<path d="M115.084 114.103C115.844 112.477 118.156 112.477 118.916 114.103V114.103C119.434 115.213 120.784 115.651 121.855 115.058V115.058C123.426 114.189 125.297 115.548 124.955 117.31V117.31C124.722 118.513 125.556 119.661 126.772 119.811V119.811C128.553 120.03 129.268 122.23 127.956 123.455V123.455C127.06 124.29 127.06 125.71 127.956 126.545V126.545C129.268 127.77 128.553 129.97 126.772 130.189V130.189C125.556 130.339 124.722 131.487 124.955 132.69V132.69C125.297 134.452 123.426 135.811 121.855 134.942V134.942C120.784 134.349 119.434 134.787 118.916 135.897V135.897C118.156 137.523 115.844 137.523 115.084 135.897V135.897C114.566 134.787 113.216 134.349 112.145 134.942V134.942C110.574 135.811 108.703 134.452 109.045 132.69V132.69C109.278 131.487 108.444 130.339 107.228 130.189V130.189C105.447 129.97 104.732 127.77 106.044 126.545V126.545C106.94 125.71 106.94 124.29 106.044 123.455V123.455C104.732 122.23 105.447 120.03 107.228 119.811V119.811C108.444 119.661 109.278 118.513 109.045 117.31V117.31C108.703 115.548 110.574 114.189 112.145 115.058V115.058C113.216 115.651 114.566 115.213 115.084 114.103V114.103Z" fill="#FFD500"/>
<path d="M190.272 123.16L200.615 145.093L176.449 143.083L190.272 123.16Z" fill="#3CABFF"/>
<circle cx="128" cy="172" r="12" fill="#E865FF"/>
<path d="M233 375.2L236.684 380L243 372" stroke="black" stroke-width="2" stroke-linecap="round" stroke-linejoin="round"/>
</g>
<defs>
<filter id="filter0_g_3033_15015" x="43.5641" y="292.65" width="241.2" height="1.95" filterUnits="userSpaceOnUse" color-interpolation-filters="sRGB">
<feFlood flood-opacity="0" result="BackgroundImageFix"/>
<feBlend mode="normal" in="SourceGraphic" in2="BackgroundImageFix" result="shape"/>
<feTurbulence type="fractalNoise" baseFrequency="2.5 2.5" numOctaves="3" seed="4366" />
<feDisplacementMap in="shape" scale="1.2000000476837158" xChannelSelector="R" yChannelSelector="G" result="displacedImage" width="100%" height="100%" />
<feMerge result="effect1_texture_3033_15015">
<feMergeNode in="displacedImage"/>
</feMerge>
</filter>
<filter id="filter1_g_3033_15015" x="43.5641" y="346.028" width="241.2" height="1.95" filterUnits="userSpaceOnUse" color-interpolation-filters="sRGB">
<feFlood flood-opacity="0" result="BackgroundImageFix"/>
<feBlend mode="normal" in="SourceGraphic" in2="BackgroundImageFix" result="shape"/>
<feTurbulence type="fractalNoise" baseFrequency="2.5 2.5" numOctaves="3" seed="4366" />
<feDisplacementMap in="shape" scale="1.2000000476837158" xChannelSelector="R" yChannelSelector="G" result="displacedImage" width="100%" height="100%" />
<feMerge result="effect1_texture_3033_15015">
<feMergeNode in="displacedImage"/>
</feMerge>
</filter>
<filter id="filter2_g_3033_15015" x="43.5641" y="403.162" width="241.2" height="1.95" filterUnits="userSpaceOnUse" color-interpolation-filters="sRGB">
<feFlood flood-opacity="0" result="BackgroundImageFix"/>
<feBlend mode="normal" in="SourceGraphic" in2="BackgroundImageFix" result="shape"/>
<feTurbulence type="fractalNoise" baseFrequency="2.5 2.5" numOctaves="3" seed="4366" />
<feDisplacementMap in="shape" scale="1.2000000476837158" xChannelSelector="R" yChannelSelector="G" result="displacedImage" width="100%" height="100%" />
<feMerge result="effect1_texture_3033_15015">
<feMergeNode in="displacedImage"/>
</feMerge>
</filter>
<clipPath id="clip0_3033_15015">
<rect width="326" height="496" fill="white"/>
</clipPath>
</defs>
</svg>
