<svg width="200" height="200" viewBox="0 0 200 200" fill="none" xmlns="http://www.w3.org/2000/svg">
<path d="M99.9277 14C101.364 16.2835 103.977 18.8724 102.565 21.1712C102.447 21.3629 102.305 21.5438 102.14 21.7096C100.973 22.8759 99.0599 22.8535 97.866 21.6596C97.6831 21.4768 97.5278 21.2771 97.4 21.0659C96.0274 18.797 98.5244 16.25 99.9277 14Z" fill="#FF3D3D"/>
<g filter="url(#filter0_f_3064_20487)">
<path d="M99.9629 19.5645C100.433 20.3118 101.288 21.159 100.826 21.9113C100.787 21.9741 100.741 22.0333 100.687 22.0876C100.305 22.4693 99.6789 22.4619 99.2881 22.0712C99.2283 22.0114 99.1775 21.946 99.1356 21.8769C98.6864 21.1343 99.5036 20.3008 99.9629 19.5645Z" fill="#FFBB11"/>
</g>
<path d="M101.54 26.7049C101.54 27.7211 102.083 28.5448 102.754 28.5448H97.2539C97.9247 28.5448 98.4688 27.7211 98.4688 26.7049V24.832H101.54V26.7049Z" fill="#EAEBEA"/>
<path d="M96.291 28.5449H103.717V61.6848H96.291V28.5449Z" fill="url(#paint0_linear_3064_20487)"/>
<path d="M80.127 28.9883C81.5636 31.2718 84.1762 33.8607 82.7641 36.1595C82.6463 36.3512 82.5045 36.5321 82.3387 36.6979C81.1724 37.8642 79.2591 37.8418 78.0652 36.6479C77.8824 36.4651 77.727 36.2654 77.5992 36.0541C76.2266 33.7852 78.7237 31.2383 80.127 28.9883Z" fill="#FF3D3D"/>
<g filter="url(#filter1_f_3064_20487)">
<path d="M80.1611 34.5527C80.6313 35.3001 81.4863 36.1473 81.0242 36.8996C80.9856 36.9624 80.9392 37.0216 80.885 37.0758C80.5033 37.4575 79.8771 37.4502 79.4864 37.0595C79.4266 36.9996 79.3757 36.9343 79.3339 36.8652C78.8847 36.1226 79.7019 35.2891 80.1611 34.5527Z" fill="#FFBB11"/>
</g>
<path d="M81.7389 41.6932C81.7389 42.7093 82.2827 43.5331 82.9535 43.5331H77.4531C78.1239 43.5331 78.668 42.7093 78.6681 41.6932V39.8203H81.7389V41.6932Z" fill="#EAEBEA"/>
<path d="M76.4902 43.5332H83.9158V64.2972H76.4902V43.5332Z" fill="url(#paint1_linear_3064_20487)"/>
<path d="M119.729 28.9883C121.165 31.2718 123.778 33.8607 122.366 36.1595C122.248 36.3512 122.106 36.5321 121.94 36.6979C120.774 37.8642 118.861 37.8418 117.667 36.6479C117.484 36.4651 117.329 36.2654 117.201 36.0541C115.828 33.7852 118.325 31.2383 119.729 28.9883Z" fill="#FF3D3D"/>
<g filter="url(#filter2_f_3064_20487)">
<path d="M119.763 34.5527C120.233 35.3001 121.088 36.1473 120.626 36.8996C120.587 36.9624 120.541 37.0216 120.487 37.0758C120.105 37.4575 119.479 37.4502 119.088 37.0595C119.028 36.9996 118.977 36.9343 118.935 36.8652C118.486 36.1226 119.303 35.2891 119.763 34.5527Z" fill="#FFBB11"/>
</g>
<path d="M121.34 41.6932C121.34 42.7093 121.884 43.5331 122.555 43.5331H117.055C117.725 43.5331 118.27 42.7093 118.27 41.6932V39.8203H121.34V41.6932Z" fill="#EAEBEA"/>
<path d="M116.092 43.5332H123.517V64.2972H116.092V43.5332Z" fill="url(#paint2_linear_3064_20487)"/>
<path d="M100.004 155.59C104.936 155.59 108.955 159.609 108.955 164.541C108.955 169.472 104.936 173.491 100.004 173.491C95.073 173.491 91.0536 169.472 91.0536 164.541C91.0536 159.609 95.073 155.59 100.004 155.59ZM100.004 159.981C97.4711 159.981 95.4445 162.007 95.4445 164.541C95.4445 167.074 97.4711 169.1 100.004 169.1C102.538 169.1 104.564 167.074 104.564 164.541C104.564 162.007 102.538 159.981 100.004 159.981Z" fill="#BDFF17"/>
<path d="M100.004 141.553C104.936 141.553 108.955 145.572 108.955 150.503C108.955 155.435 104.936 159.454 100.004 159.454C95.073 159.454 91.0536 155.435 91.0536 150.503C91.0536 145.572 95.073 141.553 100.004 141.553ZM100.004 145.944C97.4711 145.944 95.4445 147.97 95.4445 150.503C95.4445 153.037 97.4711 155.063 100.004 155.063C102.538 155.063 104.564 153.037 104.564 150.503C104.564 147.97 102.538 145.944 100.004 145.944Z" fill="#BDFF17"/>
<path d="M151.17 94.168C151.17 100.886 149.849 107.537 147.281 113.744C144.714 119.95 140.951 125.589 136.207 130.339C131.464 135.089 125.832 138.857 119.634 141.428C113.436 143.999 106.794 145.322 100.085 145.322C93.3764 145.322 86.7335 143.999 80.5356 141.428C74.3376 138.857 68.7061 135.089 63.9624 130.339C59.2187 125.589 55.4558 119.95 52.8886 113.744C50.3213 107.537 49 100.886 49 94.168L100.085 94.168L151.17 94.168Z" fill="#BDFF17"/>
<path d="M117.068 186.592C117.068 184.35 116.627 182.131 115.769 180.06C114.911 177.99 113.654 176.108 112.069 174.523C110.485 172.938 108.603 171.681 106.532 170.823C104.462 169.966 102.242 169.524 100.001 169.524C97.7595 169.524 95.5401 169.966 93.4694 170.823C91.3987 171.681 89.5172 172.938 87.9323 174.523C86.3474 176.108 85.0903 177.99 84.2325 180.06C83.3748 182.131 82.9334 184.35 82.9334 186.592L100.001 186.592L117.068 186.592Z" fill="#BDFF17"/>
<rect x="54.6387" y="59.9287" width="91.1691" height="34.24" fill="#FFD363"/>
<rect x="54.6387" y="72.9912" width="91.1691" height="15.4011" fill="#FFF7E1"/>
<path d="M53.5391 59.5193C53.5391 58.2283 54.5857 57.1816 55.8767 57.1816H144.021C145.312 57.1816 146.358 58.2283 146.358 59.5193V62.2676H53.5391V59.5193Z" fill="white"/>
<path d="M63.8523 62.1976C63.8523 63.5653 63.309 64.8769 62.342 65.8439C61.3749 66.811 60.0633 67.3543 58.6957 67.3543C57.3281 67.3543 56.0165 66.811 55.0494 65.8439C54.0823 64.8769 53.5391 63.5653 53.5391 62.1976L58.6957 62.1976H63.8523Z" fill="white"/>
<path d="M74.1658 62.1976C74.1658 63.5653 73.6225 64.8769 72.6554 65.8439C71.6884 66.811 70.3768 67.3543 69.0092 67.3543C67.6415 67.3543 66.3299 66.811 65.3629 65.8439C64.3958 64.8769 63.8525 63.5653 63.8525 62.1976L69.0092 62.1976H74.1658Z" fill="white"/>
<path d="M84.4793 62.1976C84.4793 63.5653 83.936 64.8769 82.9689 65.8439C82.0019 66.811 80.6903 67.3543 79.3226 67.3543C77.955 67.3543 76.6434 66.811 75.6764 65.8439C74.7093 64.8769 74.166 63.5653 74.166 62.1976L79.3226 62.1976H84.4793Z" fill="white"/>
<path d="M94.7918 62.1976C94.7918 63.5653 94.2485 64.8769 93.2814 65.8439C92.3144 66.811 91.0028 67.3543 89.6351 67.3543C88.2675 67.3543 86.9559 66.811 85.9889 65.8439C85.0218 64.8769 84.4785 63.5653 84.4785 62.1976L89.6351 62.1976H94.7918Z" fill="white"/>
<path d="M105.105 62.1976C105.105 63.5653 104.562 64.8769 103.595 65.8439C102.628 66.811 101.316 67.3543 99.9486 67.3543C98.581 67.3543 97.2694 66.811 96.3023 65.8439C95.3353 64.8769 94.792 63.5653 94.792 62.1976L99.9486 62.1976H105.105Z" fill="white"/>
<path d="M115.419 62.1976C115.419 63.5653 114.875 64.8769 113.908 65.8439C112.941 66.811 111.63 67.3543 110.262 67.3543C108.894 67.3543 107.583 66.811 106.616 65.8439C105.649 64.8769 105.105 63.5653 105.105 62.1976L110.262 62.1976H115.419Z" fill="white"/>
<path d="M125.732 62.1976C125.732 63.5653 125.189 64.8769 124.222 65.8439C123.255 66.811 121.943 67.3543 120.576 67.3543C119.208 67.3543 117.896 66.811 116.929 65.8439C115.962 64.8769 115.419 63.5653 115.419 62.1976L120.576 62.1976H125.732Z" fill="white"/>
<path d="M136.045 62.1976C136.045 63.5653 135.501 64.8769 134.534 65.8439C133.567 66.811 132.256 67.3543 130.888 67.3543C129.52 67.3543 128.209 66.811 127.242 65.8439C126.275 64.8769 125.731 63.5653 125.731 62.1976L130.888 62.1976H136.045Z" fill="white"/>
<path d="M146.358 62.1976C146.358 63.5653 145.815 64.8769 144.848 65.8439C143.881 66.811 142.569 67.3543 141.202 67.3543C139.834 67.3543 138.522 66.811 137.555 65.8439C136.588 64.8769 136.045 63.5653 136.045 62.1976L141.202 62.1976H146.358Z" fill="white"/>
<ellipse cx="62.2705" cy="80.6929" rx="7.63181" ry="7.56305" fill="#FF3D3D"/>
<ellipse cx="92.6601" cy="80.6929" rx="7.63181" ry="7.56305" fill="#FF3D3D"/>
<circle cx="122.981" cy="80.6929" r="7.56305" fill="#FF3D3D"/>
<circle cx="77.4654" cy="80.6929" r="7.56305" fill="#FF3D3D"/>
<circle cx="107.855" cy="80.6929" r="7.56305" fill="#FF3D3D"/>
<ellipse cx="138.176" cy="80.6929" rx="7.63181" ry="7.56305" fill="#FF3D3D"/>
<circle cx="138.176" cy="80.7607" r="2.54394" fill="#FFACAC"/>
<path d="M123.05 77.8047C123.557 79.1744 124.637 80.2543 126.007 80.7612C124.637 81.268 123.557 82.3479 123.05 83.7176C122.543 82.3479 121.463 81.268 120.094 80.7612C121.463 80.2543 122.543 79.1744 123.05 77.8047Z" fill="#FFACAC"/>
<rect x="89.6826" y="80.9043" width="4.05393" height="4.05393" transform="rotate(-45 89.6826 80.9043)" fill="#FFACAC"/>
<path d="M107.923 78.2168L110.365 79.6263V82.4452L107.923 83.8547L105.482 82.4452V79.6263L107.923 78.2168Z" fill="#FFACAC"/>
<path d="M77.5336 78.0791L78.4373 79.7918L80.3454 80.122L78.9957 81.5106L79.2714 83.4274L77.5336 82.5729L75.7958 83.4274L76.0715 81.5106L74.7218 80.122L76.63 79.7918L77.5336 78.0791Z" fill="#FFACAC"/>
<path d="M62.2014 78.7676L64.5831 82.8929H59.8196L62.2014 78.7676Z" fill="#FFACAC"/>
<defs>
<filter id="filter0_f_3064_20487" x="97.9305" y="18.4901" width="4.10279" height="4.95338" filterUnits="userSpaceOnUse" color-interpolation-filters="sRGB">
<feFlood flood-opacity="0" result="BackgroundImageFix"/>
<feBlend mode="normal" in="SourceGraphic" in2="BackgroundImageFix" result="shape"/>
<feGaussianBlur stdDeviation="0.537173" result="effect1_foregroundBlur_3064_20487"/>
</filter>
<filter id="filter1_f_3064_20487" x="78.1288" y="33.4784" width="4.10279" height="4.95338" filterUnits="userSpaceOnUse" color-interpolation-filters="sRGB">
<feFlood flood-opacity="0" result="BackgroundImageFix"/>
<feBlend mode="normal" in="SourceGraphic" in2="BackgroundImageFix" result="shape"/>
<feGaussianBlur stdDeviation="0.537173" result="effect1_foregroundBlur_3064_20487"/>
</filter>
<filter id="filter2_f_3064_20487" x="117.73" y="33.4784" width="4.10279" height="4.95338" filterUnits="userSpaceOnUse" color-interpolation-filters="sRGB">
<feFlood flood-opacity="0" result="BackgroundImageFix"/>
<feBlend mode="normal" in="SourceGraphic" in2="BackgroundImageFix" result="shape"/>
<feGaussianBlur stdDeviation="0.537173" result="effect1_foregroundBlur_3064_20487"/>
</filter>
<linearGradient id="paint0_linear_3064_20487" x1="100.004" y1="28.5449" x2="100.004" y2="57.5715" gradientUnits="userSpaceOnUse">
<stop stop-color="#EAEBEA"/>
<stop offset="1" stop-color="#FFE481"/>
</linearGradient>
<linearGradient id="paint1_linear_3064_20487" x1="80.203" y1="43.5332" x2="80.203" y2="72.5598" gradientUnits="userSpaceOnUse">
<stop stop-color="#EAEBEA"/>
<stop offset="1" stop-color="#FFE481"/>
</linearGradient>
<linearGradient id="paint2_linear_3064_20487" x1="119.805" y1="43.5332" x2="119.805" y2="72.5598" gradientUnits="userSpaceOnUse">
<stop stop-color="#EAEBEA"/>
<stop offset="1" stop-color="#FFE481"/>
</linearGradient>
</defs>
</svg>
